<?xml version="1.0" encoding="UTF-8"?>
<svg xmlns="http://www.w3.org/2000/svg" xmlns:xlink="http://www.w3.org/1999/xlink" width="760pt" height="800pt" viewBox="0 0 760 800" version="1.1">
<g id="surface1">
<path style=" stroke:none;fill-rule:nonzero;fill:rgb(93.299866%,43.899536%,37.998962%);fill-opacity:1;" d="M 380 50 C 186.699219 50 30 206.699219 30 400 C 30 593.300781 186.699219 750 380 750 C 573.300781 750 730 593.300781 730 400 C 730 206.699219 573.300781 50 380 50 "/>
<path style=" stroke:none;fill-rule:nonzero;fill:rgb(100%,100%,100%);fill-opacity:1;" d="M 380 737.277344 C 194.023438 737.277344 42.726562 585.976562 42.726562 400 C 42.726562 214.023438 194.023438 62.722656 380 62.722656 C 565.980469 62.722656 717.277344 214.023438 717.277344 400 C 717.277344 585.976562 565.980469 737.277344 380 737.277344 "/>
<path style=" stroke:none;fill-rule:nonzero;fill:rgb(93.299866%,43.899536%,37.998962%);fill-opacity:1;" d="M 375.109375 737.273438 L 375.109375 418.238281 L 215.597656 694.53125 L 207.140625 689.644531 L 366.652344 413.351562 L 90.351562 572.867188 L 85.488281 564.394531 L 361.753906 404.886719 L 42.714844 404.886719 L 42.714844 395.113281 L 361.753906 395.113281 L 85.488281 235.601562 L 90.351562 227.132812 L 366.652344 386.652344 L 207.140625 110.355469 L 215.597656 105.46875 L 375.109375 381.761719 L 375.109375 62.726562 L 384.894531 62.726562 L 384.894531 381.761719 L 544.40625 105.46875 L 552.867188 110.355469 L 393.355469 386.652344 L 669.652344 227.132812 L 674.519531 235.601562 L 398.253906 395.113281 L 717.277344 395.113281 L 717.277344 404.886719 L 398.253906 404.886719 L 674.519531 564.394531 L 669.652344 572.867188 L 393.355469 413.351562 L 552.867188 689.644531 L 544.40625 694.53125 L 384.894531 418.238281 L 384.894531 737.273438 L 375.109375 737.273438 "/>
<path style=" stroke:none;fill-rule:nonzero;fill:rgb(32.899475%,70.199585%,89.7995%);fill-opacity:1;" d="M 380 147.507812 C 240.835938 147.507812 127.621094 260.726562 127.621094 399.886719 C 127.621094 539.054688 240.835938 652.269531 380 652.269531 C 519.167969 652.269531 632.382812 539.054688 632.382812 399.886719 C 632.382812 260.726562 519.167969 147.507812 380 147.507812 "/>
<path style=" stroke:none;fill-rule:nonzero;fill:rgb(31.799316%,32.199097%,32.199097%);fill-opacity:1;" d="M 380 163.40625 C 249.601562 163.40625 143.519531 269.492188 143.519531 399.886719 C 143.519531 530.289062 249.601562 636.375 380 636.375 C 510.402344 636.375 616.484375 530.289062 616.484375 399.886719 C 616.484375 269.492188 510.402344 163.40625 380 163.40625 "/>
<path style=" stroke:none;fill-rule:nonzero;fill:rgb(100%,100%,100%);fill-opacity:1;" d="M 468.105469 422.6875 L 438.890625 330.441406 L 597.84375 330.441406 Z M 511.617188 583.398438 L 384.035156 491.09375 L 464.3125 434.019531 Z M 295.347656 426.921875 L 328.148438 330.441406 L 431.507812 330.441406 L 462.078125 426.96875 L 378.015625 486.738281 Z M 242.179688 583.320312 L 292.976562 433.890625 L 371.960938 491.046875 Z M 162.003906 330.441406 L 320.710938 330.441406 L 289.386719 422.605469 Z M 381.660156 173.03125 L 429.28125 323.402344 L 330.539062 323.402344 Z M 612.222656 325.855469 C 611.753906 324.394531 610.398438 323.402344 608.867188 323.402344 L 436.660156 323.402344 L 385.128906 160.6875 C 384.667969 159.238281 383.335938 158.25 381.808594 158.234375 L 381.777344 158.234375 C 380.269531 158.234375 378.929688 159.191406 378.441406 160.621094 L 323.101562 323.402344 L 151.136719 323.402344 C 149.609375 323.402344 148.257812 324.386719 147.789062 325.84375 C 147.324219 327.292969 147.839844 328.882812 149.074219 329.777344 L 287.015625 429.574219 L 232.011719 591.363281 C 231.519531 592.8125 232.015625 594.40625 233.238281 595.320312 C 233.867188 595.78125 234.601562 596.015625 235.34375 596.015625 C 236.058594 596.015625 236.773438 595.800781 237.386719 595.363281 L 377.980469 495.398438 L 516.125 595.347656 C 517.351562 596.242188 519.011719 596.234375 520.25 595.347656 C 521.480469 594.460938 522.003906 592.882812 521.539062 591.4375 L 470.332031 429.738281 L 610.910156 329.796875 C 612.152344 328.910156 612.691406 327.3125 612.222656 325.855469 "/>
<path style=" stroke:none;fill-rule:nonzero;fill:rgb(31.799316%,32.199097%,32.199097%);fill-opacity:1;" d="M 497.492188 92.605469 C 495.320312 92.128906 493.128906 91.882812 490.964844 91.882812 C 486.945312 91.882812 482.933594 92.710938 479.023438 94.351562 C 472.46875 97.082031 467.285156 101.839844 463.621094 108.515625 L 462.996094 109.648438 L 455.199219 106.949219 L 455.410156 105.675781 C 456.640625 98.179688 455.515625 91.21875 452.046875 85.007812 C 448.800781 79.1875 444.234375 74.9375 437.226562 71.894531 C 435.820312 71.894531 434.589844 72.832031 434.082031 74.285156 C 433.585938 75.734375 434.175781 77.332031 435.480469 78.09375 C 445.675781 84.027344 451.769531 95.34375 449.054688 103.304688 L 448.554688 104.757812 L 442.789062 102.945312 C 441.421875 102.945312 440.199219 103.8125 439.753906 105.109375 C 439.476562 105.914062 439.527344 106.785156 439.902344 107.554688 C 440.277344 108.332031 440.933594 108.910156 441.738281 109.1875 L 446.734375 110.925781 L 445.832031 112.523438 C 444.101562 115.574219 441.730469 118.078125 438.574219 120.167969 C 434.433594 122.921875 429.921875 124.316406 425.15625 124.316406 C 423.441406 124.316406 421.6875 124.136719 419.285156 123.710938 C 417.921875 123.710938 416.691406 124.605469 416.234375 125.933594 C 415.628906 127.679688 416.644531 129.441406 418.53125 130.105469 C 420.6875 130.605469 422.886719 130.855469 425.082031 130.855469 C 427.722656 130.855469 430.398438 130.492188 433.039062 129.769531 C 441.550781 127.425781 448.105469 122.160156 452.507812 114.105469 L 453.125 112.96875 L 460.898438 115.664062 L 460.691406 116.929688 C 459.175781 126 461.078125 134.191406 466.328125 141.292969 C 469.3125 145.34375 473.078125 148.453125 477.839844 150.660156 C 478.175781 150.78125 478.523438 150.839844 478.875 150.839844 L 480.269531 150.511719 C 481.054688 150.132812 481.628906 149.476562 481.925781 148.601562 C 482.449219 147.09375 481.769531 145.417969 480.34375 144.699219 C 474.199219 141.605469 470.015625 136.765625 467.894531 130.320312 C 466.71875 126.738281 466.390625 123.300781 466.902344 119.824219 L 467.179688 117.996094 L 468.917969 118.601562 L 473.238281 119.914062 C 474.609375 119.914062 475.824219 119.042969 476.273438 117.75 C 476.855469 116.078125 475.957031 114.246094 474.289062 113.664062 L 469.558594 112.03125 L 470.066406 110.585938 C 472.453125 103.78125 481.636719 98.851562 491.890625 98.851562 C 493.351562 98.851562 494.832031 98.949219 496.746094 99.183594 C 498.117188 99.183594 499.328125 98.246094 499.835938 96.78125 C 500.445312 95.023438 499.441406 93.292969 497.492188 92.605469 "/>
<path style=" stroke:none;fill-rule:nonzero;fill:rgb(31.799316%,32.199097%,32.199097%);fill-opacity:1;" d="M 541.734375 175.738281 C 542.296875 175.738281 542.863281 175.597656 543.371094 175.324219 C 545.5625 174.144531 547.695312 173.546875 549.730469 173.546875 C 552.476562 173.546875 555.101562 174.628906 557.601562 176.828125 C 559.191406 178.402344 560.234375 180.320312 560.71875 182.5 C 561.386719 185.40625 560.957031 188.167969 559.40625 190.957031 C 558.558594 192.5 558.8125 194.375 560.050781 195.605469 C 560.773438 196.328125 561.742188 196.730469 562.777344 196.730469 C 563.367188 196.730469 563.941406 196.597656 564.484375 196.335938 C 567.074219 195.097656 569.207031 194.523438 571.199219 194.523438 C 573.765625 194.523438 576.09375 195.519531 578.347656 197.625 C 582.566406 201.839844 583.261719 206.660156 580.421875 211.9375 C 579.605469 213.46875 579.867188 215.304688 581.082031 216.511719 C 581.792969 217.21875 582.777344 217.621094 583.796875 217.621094 C 584.4375 217.621094 585.074219 217.464844 585.632812 217.160156 C 587.574219 216.109375 589.585938 215.578125 591.609375 215.578125 C 594.480469 215.578125 597.230469 216.683594 599.617188 218.832031 C 603.511719 222.726562 604.011719 227.574219 601.105469 233.242188 C 600.4375 234.546875 600.683594 236.113281 601.707031 237.144531 C 602.335938 237.761719 603.175781 238.105469 604.070312 238.105469 L 604.460938 238.082031 C 605.480469 237.976562 606.347656 237.449219 606.890625 236.597656 C 609.851562 231.953125 610.441406 225.964844 608.441406 220.964844 C 607.332031 218.167969 605.839844 215.824219 604.011719 213.988281 C 600.730469 210.707031 596.253906 209.035156 590.078125 209.035156 L 588.414062 209.066406 L 588.472656 207.449219 C 588.683594 201.789062 586.925781 197.148438 583.105469 193.269531 C 579.566406 189.734375 575.199219 188.011719 569.117188 188.011719 L 567.449219 188.046875 L 567.507812 186.429688 C 567.777344 179.359375 564.792969 174.839844 562.242188 172.292969 C 560.316406 170.371094 557.96875 168.886719 555.429688 167.996094 C 553.632812 167.347656 551.574219 167.015625 549.480469 167.015625 C 546.003906 167.015625 542.640625 167.902344 540.007812 169.519531 C 539.117188 170.066406 538.535156 170.976562 538.402344 172.027344 C 538.277344 173.03125 538.617188 174.003906 539.378906 174.757812 C 540.015625 175.390625 540.851562 175.738281 541.734375 175.738281 "/>
<path style=" stroke:none;fill-rule:nonzero;fill:rgb(31.799316%,32.199097%,32.199097%);fill-opacity:1;" d="M 564.523438 152.960938 C 565.09375 152.960938 565.648438 152.816406 566.15625 152.542969 C 568.335938 151.386719 570.460938 150.796875 572.492188 150.796875 C 575.234375 150.796875 577.867188 151.863281 580.402344 154.058594 C 581.992188 155.644531 583.039062 157.554688 583.507812 159.726562 C 584.179688 162.636719 583.746094 165.402344 582.195312 168.179688 C 581.34375 169.71875 581.597656 171.59375 582.835938 172.824219 C 583.558594 173.554688 584.53125 173.949219 585.566406 173.949219 C 586.15625 173.949219 586.730469 173.824219 587.273438 173.5625 C 589.863281 172.316406 591.996094 171.742188 593.988281 171.742188 C 596.554688 171.742188 598.882812 172.742188 601.140625 174.84375 C 605.347656 179.066406 606.050781 183.878906 603.214844 189.167969 C 602.394531 190.6875 602.664062 192.523438 603.871094 193.730469 C 604.585938 194.449219 605.585938 194.859375 606.605469 194.859375 C 607.234375 194.859375 607.855469 194.703125 608.382812 194.417969 C 610.351562 193.34375 612.375 192.808594 614.410156 192.808594 C 617.28125 192.808594 620.027344 193.910156 622.40625 196.050781 C 626.300781 199.945312 626.800781 204.800781 623.898438 210.460938 C 623.234375 211.773438 623.480469 213.339844 624.511719 214.371094 C 625.144531 215.003906 625.976562 215.363281 626.851562 215.363281 L 627.226562 215.339844 C 628.230469 215.238281 629.128906 214.675781 629.679688 213.820312 C 632.609375 209.210938 633.207031 203.21875 631.230469 198.183594 C 630.117188 195.386719 628.628906 193.039062 626.808594 191.21875 C 623.519531 187.929688 619.035156 186.257812 612.867188 186.257812 L 611.203125 186.292969 L 611.261719 184.675781 C 611.476562 179.007812 609.71875 174.367188 605.890625 170.488281 C 602.378906 166.976562 598.007812 165.269531 591.878906 165.269531 L 590.199219 165.304688 L 590.265625 163.671875 C 590.554688 156.585938 587.589844 152.066406 585.035156 149.515625 C 583.164062 147.648438 580.804688 146.164062 578.226562 145.21875 C 576.429688 144.578125 574.367188 144.234375 572.265625 144.234375 C 568.800781 144.234375 565.433594 145.128906 562.800781 146.738281 C 561.890625 147.300781 561.324219 148.1875 561.191406 149.238281 C 561.0625 150.253906 561.414062 151.222656 562.167969 151.976562 C 562.800781 152.617188 563.636719 152.960938 564.523438 152.960938 "/>
<path style=" stroke:none;fill-rule:nonzero;fill:rgb(31.799316%,32.199097%,32.199097%);fill-opacity:1;" d="M 117.917969 322.101562 C 116.597656 325.011719 115.773438 327.039062 114.851562 330.210938 C 113.890625 333.488281 113.421875 336.03125 112.984375 339.308594 L 112.757812 341.074219 L 71.539062 329.019531 L 72.292969 327.402344 C 73.679688 324.414062 74.570312 322.320312 75.53125 319.042969 C 76.453125 315.878906 76.984375 313.4375 77.382812 310.269531 L 77.605469 308.496094 L 118.652344 320.5 Z M 133.683594 300.761719 C 132.535156 300.535156 131.371094 300.839844 130.484375 301.589844 C 128.910156 302.929688 127.851562 305.097656 126.726562 307.398438 C 125.902344 309.085938 125.074219 310.777344 124.027344 312.226562 L 123.394531 313.105469 L 77.613281 299.683594 L 77.558594 298.601562 C 77.457031 296.824219 77.667969 294.957031 77.875 293.09375 C 78.164062 290.5625 78.4375 288.15625 77.832031 286.175781 C 77.433594 284.847656 76.332031 283.855469 74.941406 283.578125 C 74.328125 283.457031 73.699219 283.492188 73.097656 283.679688 C 71.875 284.050781 70.933594 285.007812 70.574219 286.242188 C 70.359375 286.96875 70.371094 287.691406 70.605469 288.429688 C 73.214844 296.941406 73.023438 307.183594 70.082031 317.269531 C 67.136719 327.363281 61.785156 336.097656 54.984375 341.898438 C 54.425781 342.347656 54.019531 342.96875 53.808594 343.695312 C 53.445312 344.914062 53.730469 346.234375 54.546875 347.210938 C 55.105469 347.851562 55.808594 348.289062 56.980469 348.519531 L 57.128906 348.542969 C 58.144531 348.628906 59.121094 348.3125 59.890625 347.652344 C 61.472656 346.316406 62.53125 344.140625 63.660156 341.835938 C 64.476562 340.164062 65.304688 338.484375 66.34375 337.039062 L 66.972656 336.160156 L 112.757812 349.550781 L 112.816406 350.636719 C 112.917969 352.414062 112.71875 354.28125 112.503906 356.132812 C 112.21875 358.667969 111.949219 361.070312 112.550781 363.054688 C 112.839844 364.023438 113.5 364.824219 114.402344 365.300781 C 114.726562 365.46875 115.074219 365.59375 115.433594 365.664062 C 116.054688 365.789062 116.6875 365.753906 117.277344 365.566406 C 118.503906 365.183594 119.449219 364.230469 119.808594 363.003906 C 120.019531 362.28125 120.019531 361.523438 119.816406 360.820312 C 117.214844 352.3125 117.402344 342.070312 120.347656 331.976562 C 123.289062 321.890625 128.640625 313.15625 135.394531 307.386719 C 135.964844 306.898438 136.363281 306.261719 136.574219 305.550781 C 136.933594 304.3125 136.652344 303.003906 135.8125 302.023438 C 135.261719 301.367188 134.523438 300.929688 133.683594 300.761719 "/>
<path style=" stroke:none;fill-rule:nonzero;fill:rgb(31.799316%,32.199097%,32.199097%);fill-opacity:1;" d="M 272.8125 129.1875 C 275.199219 130.105469 277.550781 130.605469 280.324219 130.683594 C 281.019531 130.683594 281.832031 130.625 282.988281 130.453125 C 284.539062 129.984375 285.605469 128.582031 285.574219 127.066406 C 285.550781 126.082031 285.148438 125.1875 284.433594 124.539062 C 283.808594 123.972656 282.957031 123.644531 282.09375 123.644531 L 280.523438 123.710938 C 277.085938 123.710938 274.074219 122.570312 271.320312 120.21875 C 266.195312 115.851562 265.085938 108.464844 268.679688 102.65625 C 269.992188 100.527344 272.28125 97.769531 275.722656 96.710938 C 276.671875 96.425781 277.667969 96.277344 278.691406 96.277344 C 280.503906 96.277344 282.421875 96.738281 284.398438 97.65625 C 288.113281 99.378906 291.675781 101.425781 295.316406 103.511719 L 297.949219 105.199219 L 298.910156 106.660156 L 311.601562 148.15625 C 312.085938 149.734375 313.585938 150.839844 315.246094 150.839844 L 316.363281 150.667969 C 317.351562 150.371094 318.15625 149.699219 318.632812 148.796875 C 319.101562 147.902344 319.199219 146.871094 318.902344 145.910156 C 318.902344 145.910156 307.40625 108.621094 306.148438 104.222656 L 306.125 102.328125 L 307.386719 99.746094 C 309.199219 96.046875 311.011719 92.347656 313.113281 88.824219 C 314.875 85.894531 317.113281 83.992188 319.769531 83.179688 C 320.738281 82.871094 321.773438 82.722656 322.847656 82.722656 C 324.773438 82.722656 326.816406 83.203125 328.925781 84.132812 C 335.148438 86.921875 338.378906 93.65625 336.585938 100.15625 C 335.5 104.078125 333.277344 106.945312 329.8125 108.898438 C 328.972656 109.382812 328.351562 110.210938 328.136719 111.148438 C 327.921875 112.113281 328.113281 113.089844 328.6875 113.917969 C 329.261719 114.753906 330.140625 115.175781 331.328125 115.175781 C 331.941406 115.175781 332.636719 115.058594 333.46875 114.835938 C 334.148438 114.453125 334.804688 114.03125 335.425781 113.574219 C 337.253906 112.253906 338.878906 110.570312 340.382812 108.410156 C 345.425781 101.214844 345.144531 91.175781 339.691406 84.007812 C 335.878906 78.988281 329.695312 75.996094 323.152344 75.996094 C 320.960938 75.996094 318.773438 76.324219 316.679688 76.972656 C 311.734375 78.695312 308.621094 82.78125 306.230469 86.558594 C 304.765625 88.871094 303.097656 91.890625 301.640625 94.546875 L 300.039062 97.425781 L 297.316406 96.039062 C 294.578125 94.652344 291.394531 93.023438 288.828125 91.90625 C 285.992188 90.683594 282.578125 89.429688 278.75 89.429688 C 277.175781 89.429688 275.589844 89.644531 274.074219 90.050781 C 266.0625 92.511719 260.15625 100.140625 259.699219 108.597656 C 259.207031 117.59375 264.601562 126.066406 272.8125 129.1875 "/>
<path style=" stroke:none;fill-rule:nonzero;fill:rgb(31.799316%,32.199097%,32.199097%);fill-opacity:1;" d="M 169.945312 195.609375 C 169.945312 195.609375 170.574219 194.832031 170.707031 194.660156 L 170.953125 194.402344 C 174.011719 191.273438 178.652344 189.402344 183.363281 189.402344 C 187.480469 189.402344 191.34375 190.789062 194.53125 193.414062 C 198.207031 196.445312 200.46875 200.71875 200.898438 205.46875 C 201.347656 210.371094 199.753906 214.859375 195.953125 219.28125 C 192.480469 222.84375 187.96875 224.804688 183.253906 224.804688 C 179.664062 224.804688 176.257812 223.65625 173.390625 221.484375 C 168.835938 218.023438 166.148438 213.734375 165.617188 209.066406 C 165.121094 204.566406 166.613281 199.9375 169.945312 195.609375 Z M 159.003906 200.734375 L 158.742188 202.53125 C 157.691406 209.617188 159.316406 216.484375 163.320312 221.871094 C 167.597656 227.609375 174.21875 231.246094 181.507812 231.867188 C 182.203125 231.925781 182.894531 231.957031 183.582031 231.957031 C 190.21875 231.957031 196.457031 229.308594 201.148438 224.507812 C 205.636719 219.894531 208.171875 213.800781 208.285156 207.351562 C 208.398438 200.203125 205.875 194.089844 200.78125 189.171875 C 195.882812 184.457031 190.03125 182.070312 183.410156 182.070312 C 181.730469 182.070312 180 182.21875 178.226562 182.519531 L 176.539062 182.800781 L 176.449219 181.09375 C 176.054688 173.984375 174.628906 170.429688 170.339844 165.886719 C 166.84375 162.191406 166.769531 157.136719 170.246094 152.882812 C 171.9375 151.152344 174.191406 150.199219 176.59375 150.199219 C 178.410156 150.199219 180.277344 150.75 181.976562 151.785156 L 183.863281 151.9375 C 184.601562 151.285156 187.199219 148.632812 187.707031 147.878906 L 186.988281 146.371094 C 183.753906 143.976562 180.371094 142.769531 176.941406 142.769531 C 174.980469 142.769531 172.949219 143.164062 170.921875 143.941406 C 168.453125 144.886719 166.359375 146.222656 164.71875 147.902344 C 162.152344 150.535156 160.667969 154.015625 160.296875 158.261719 C 159.867188 163.140625 161.675781 167.554688 165.96875 172.148438 C 170.320312 176.789062 170.140625 184.199219 165.507812 189.433594 C 162.925781 192.074219 159.757812 193.46875 156.347656 193.46875 C 153.007812 193.46875 149.738281 192.117188 146.898438 189.558594 C 143.667969 186.648438 139.601562 185.046875 135.433594 185.046875 C 131.875 185.046875 128.472656 186.195312 125.59375 188.367188 C 124.894531 188.902344 124.246094 189.472656 123.648438 190.082031 C 118.671875 195.183594 117.546875 202.65625 120.777344 209.132812 C 121.050781 209.675781 121.371094 210.199219 121.828125 210.804688 L 125.058594 210.730469 L 126.183594 211.109375 L 127.796875 209.558594 C 128.726562 208.601562 128.726562 207.839844 127.808594 206.519531 C 125.394531 203.015625 126.011719 198.210938 129.445312 194.707031 C 131.097656 193.265625 133.121094 192.507812 135.285156 192.507812 C 137.566406 192.507812 139.835938 193.355469 142.058594 195.152344 C 143.191406 196.070312 144.316406 196.988281 145.53125 197.769531 C 148.664062 199.792969 152.246094 200.777344 157.132812 200.777344 L 159.003906 200.734375 "/>
<path style=" stroke:none;fill-rule:nonzero;fill:rgb(31.799316%,32.199097%,32.199097%);fill-opacity:1;" d="M 86.136719 505.566406 C 83.554688 505.566406 81.175781 504.605469 79.429688 502.867188 C 78.050781 501.503906 77.171875 499.734375 76.863281 497.804688 L 76.746094 497.792969 L 76.835938 497.617188 C 76.777344 497.175781 76.746094 496.730469 76.746094 496.28125 L 77.253906 496.789062 L 78.273438 494.742188 L 76.746094 496.273438 C 76.746094 491.277344 80.898438 487.195312 86.015625 487.179688 C 88.417969 487.179688 90.703125 488.136719 92.433594 489.875 C 94.160156 491.628906 95.125 493.9375 95.132812 496.398438 C 95.132812 501.339844 91.042969 505.539062 86.136719 505.566406 Z M 85.972656 480.46875 C 83.691406 480.46875 81.511719 480.976562 79.507812 481.976562 C 77.921875 482.765625 76.476562 483.839844 74.46875 485.332031 L 72.472656 486.792969 L 72.0625 484.347656 C 71.511719 481.035156 71.226562 478.425781 71.226562 475.84375 C 71.226562 474.238281 71.339844 472.652344 71.554688 470.914062 C 73.523438 454.71875 78.175781 448.925781 81.726562 446.917969 C 82.644531 446.394531 83.214844 445.417969 83.214844 444.363281 C 83.214844 443.375 82.707031 442.464844 81.855469 441.941406 C 81.578125 441.769531 81.28125 441.652344 80.683594 441.652344 C 80.296875 441.652344 79.796875 441.695312 79.09375 441.816406 C 76.714844 443 73.390625 445.371094 71.0625 449.976562 C 67.5625 456.921875 65.640625 466.183594 65.640625 476.074219 C 65.640625 483.832031 66.839844 491.558594 69.113281 498.421875 C 71.128906 504.457031 74.617188 508.617188 79.511719 510.796875 C 81.601562 511.734375 83.792969 512.207031 86.023438 512.207031 C 90.835938 512.207031 95.371094 509.976562 98.480469 506.082031 C 100.597656 503.425781 101.761719 500.003906 101.761719 496.4375 C 101.761719 492.84375 100.59375 489.367188 98.457031 486.652344 C 95.421875 482.78125 90.753906 480.46875 85.972656 480.46875 "/>
<path style=" stroke:none;fill-rule:nonzero;fill:rgb(31.799316%,32.199097%,32.199097%);fill-opacity:1;" d="M 108.105469 466.527344 C 103.597656 466.527344 99.839844 463.183594 99.113281 458.820312 L 98.972656 458.820312 L 99.085938 458.605469 C 99.027344 458.1875 98.988281 457.761719 98.988281 457.328125 L 99.480469 457.820312 L 100.519531 455.765625 L 98.988281 457.292969 C 98.988281 452.355469 103.082031 448.171875 107.992188 448.140625 C 110.5625 448.140625 112.945312 449.09375 114.691406 450.832031 C 116.429688 452.5625 117.382812 454.898438 117.382812 457.425781 C 117.375 462.425781 113.210938 466.503906 108.105469 466.527344 Z M 114.609375 442.898438 C 112.519531 441.964844 110.332031 441.492188 108.09375 441.492188 C 103.292969 441.492188 98.75 443.726562 95.640625 447.617188 C 93.527344 450.265625 92.363281 453.691406 92.363281 457.269531 C 92.363281 460.863281 93.535156 464.335938 95.660156 467.050781 C 98.699219 470.921875 103.367188 473.234375 108.15625 473.234375 C 110.4375 473.234375 112.609375 472.726562 114.613281 471.726562 C 116.195312 470.941406 117.628906 469.867188 119.664062 468.363281 L 121.664062 466.914062 L 122.066406 469.355469 C 122.609375 472.671875 122.894531 475.277344 122.894531 477.863281 C 122.894531 479.460938 122.78125 481.050781 122.566406 482.78125 C 120.597656 498.972656 115.949219 504.777344 112.394531 506.789062 C 111.484375 507.304688 110.914062 508.277344 110.914062 509.335938 C 110.914062 510.324219 111.414062 511.234375 112.257812 511.757812 C 112.710938 512.042969 113.234375 512.191406 113.757812 512.191406 L 115.03125 511.886719 C 117.414062 510.707031 120.730469 508.335938 123.050781 503.71875 C 126.554688 496.773438 128.488281 487.507812 128.488281 477.625 C 128.488281 469.875 127.289062 462.148438 125.007812 455.277344 C 123.007812 449.253906 119.507812 445.089844 114.609375 442.898438 "/>
<path style=" stroke:none;fill-rule:nonzero;fill:rgb(31.799316%,32.199097%,32.199097%);fill-opacity:1;" d="M 285.992188 689.101562 C 285.046875 692.832031 282.292969 695.273438 278.347656 695.488281 C 277.640625 695.488281 276.914062 695.398438 276.242188 695.21875 C 273.753906 694.613281 271.769531 692.871094 270.789062 690.417969 C 269.875 688.023438 270.140625 685.523438 271.640625 682.53125 C 273.789062 678.289062 277.332031 675.214844 282.800781 672.855469 C 284.480469 672.125 286.199219 671.515625 288.039062 670.910156 L 290.921875 669.875 Z M 345.710938 717.417969 C 344.816406 717.417969 343.980469 717.867188 343.496094 718.589844 C 342.53125 720.089844 341.347656 721.222656 339.988281 721.953125 C 338.832031 722.609375 337.640625 722.9375 336.4375 722.9375 L 334.804688 722.738281 C 333.769531 722.496094 332.714844 721.96875 331.679688 721.148438 C 329.070312 719.042969 328.113281 716.195312 328.933594 712.90625 L 335.910156 685.703125 C 336.265625 684.308594 335.402344 682.867188 333.378906 682.410156 C 332.199219 682.410156 331.117188 683.238281 330.820312 684.367188 L 323.90625 711.355469 C 323.035156 714.726562 320.953125 716.769531 317.78125 717.402344 L 315.96875 717.632812 C 315.3125 717.632812 314.664062 717.539062 314.089844 717.371094 C 312.152344 716.894531 310.503906 715.679688 309.460938 713.941406 C 308.300781 712.019531 307.980469 709.691406 308.554688 707.386719 L 315.386719 680.457031 C 315.5625 679.78125 315.464844 679.070312 315.097656 678.46875 C 314.746094 677.871094 314.179688 677.453125 312.824219 677.191406 C 311.644531 677.191406 310.621094 678.003906 310.324219 679.160156 L 303.328125 706.445312 C 302.789062 708.601562 301.507812 710.28125 299.65625 711.292969 C 298.316406 712.054688 296.949219 712.449219 295.59375 712.449219 L 293.839844 712.226562 C 292.832031 711.972656 291.832031 711.472656 290.878906 710.75 C 288.148438 708.691406 287.15625 705.828125 288.007812 702.449219 L 295.347656 673.746094 C 295.347656 673.746094 295.847656 671.015625 295.90625 670.425781 L 296.039062 669.21875 L 300.8125 668.6875 C 302.148438 668.554688 303.195312 667.398438 303.1875 666.046875 C 303.195312 664.855469 302.320312 664.027344 300.371094 663.503906 L 294.890625 663.898438 L 294.414062 663.050781 C 292.5625 659.746094 289.617188 657.433594 286.121094 656.535156 C 285.082031 656.277344 284.015625 656.140625 282.949219 656.140625 C 280.351562 656.140625 277.765625 656.941406 275.46875 658.449219 C 273.691406 659.625 272.304688 661.132812 271.34375 662.945312 C 270.964844 663.640625 270.925781 664.476562 271.253906 665.199219 C 271.582031 665.949219 272.222656 666.503906 273.699219 666.792969 C 274.625 666.792969 275.492188 666.300781 275.953125 665.527344 C 277.535156 662.816406 279.796875 661.476562 282.933594 661.414062 C 283.65625 661.4375 284.308594 661.46875 284.964844 661.660156 C 285.957031 661.9375 286.835938 662.378906 287.640625 663.011719 L 289.9375 664.832031 L 287.136719 665.675781 C 285.515625 666.160156 283.972656 666.636719 282.457031 667.242188 C 273.941406 670.605469 268.71875 675.386719 266.011719 682.292969 C 264.53125 686.023438 264.714844 690.15625 266.503906 693.632812 C 268.21875 696.957031 271.246094 699.398438 274.765625 700.300781 C 275.675781 700.507812 276.632812 700.664062 277.816406 700.710938 C 278.855469 700.710938 279.890625 700.582031 280.957031 700.417969 L 283.023438 700.097656 L 282.695312 702.164062 C 281.851562 707.488281 283.53125 711.777344 287.699219 714.902344 C 289.246094 716.089844 290.914062 716.917969 292.636719 717.378906 C 293.578125 717.617188 294.542969 717.738281 295.496094 717.738281 C 297.816406 717.738281 300.21875 717.042969 302.632812 715.679688 L 303.945312 714.941406 L 304.707031 716.238281 C 306.578125 719.4375 309.355469 721.527344 312.957031 722.4375 C 314.039062 722.722656 315.136719 722.871094 316.210938 722.871094 C 318.507812 722.871094 320.8125 722.207031 323.0625 720.894531 L 324.363281 720.148438 L 325.136719 721.421875 C 327.070312 724.617188 329.980469 726.847656 333.320312 727.695312 C 334.410156 727.964844 335.519531 728.105469 336.617188 728.105469 C 337.332031 728.105469 338.058594 728.046875 338.789062 727.929688 C 342.613281 727.316406 346.179688 724.804688 348.082031 721.363281 C 348.492188 720.640625 348.542969 719.789062 348.207031 719.03125 C 347.878906 718.269531 347.222656 717.722656 345.710938 717.417969 "/>
<path style=" stroke:none;fill-rule:nonzero;fill:rgb(31.799316%,32.199097%,32.199097%);fill-opacity:1;" d="M 479.761719 666.832031 C 479.507812 666.832031 479.234375 666.847656 478.941406 666.867188 L 463.226562 672.753906 C 461.867188 673.261719 461.027344 674.425781 460.980469 675.863281 C 460.960938 676.4375 460.90625 678.183594 463.84375 679.527344 C 470.671875 682.75 474.003906 690.773438 471.609375 698.210938 C 470.207031 702.550781 466.746094 706.132812 462.351562 707.773438 C 460.652344 708.40625 458.886719 708.734375 457.09375 708.734375 C 456.273438 708.734375 455.445312 708.660156 454.632812 708.527344 C 449.6875 707.660156 445.570312 704.761719 443.339844 700.554688 C 441.117188 696.339844 441.042969 691.265625 443.132812 686.644531 C 443.730469 685.3125 443.488281 683.890625 442.496094 682.824219 C 441.960938 682.25 441.273438 681.875 439.878906 681.875 C 439.542969 681.875 439.164062 681.898438 438.738281 681.941406 L 423.261719 687.738281 C 422.351562 688.082031 421.628906 688.753906 421.222656 689.640625 C 420.828125 690.519531 420.792969 691.511719 421.136719 692.421875 C 421.613281 693.691406 422.761719 694.585938 425.007812 694.585938 C 425.261719 694.585938 425.527344 694.578125 425.804688 694.546875 L 433.890625 691.527344 L 434.046875 693.550781 C 434.980469 705.238281 440.878906 712.601562 451.589844 715.433594 C 453.753906 716.007812 455.886719 716.300781 457.921875 716.300781 C 460.390625 716.300781 462.785156 715.875 465.03125 715.03125 C 468.8125 713.613281 472.125 711.054688 474.878906 707.414062 C 482.050781 697.933594 481.882812 688.402344 474.355469 678.289062 L 473.140625 676.65625 L 481.449219 673.542969 C 482.34375 673.210938 483.082031 672.507812 483.457031 671.617188 C 483.84375 670.710938 483.828125 669.726562 483.425781 668.777344 C 482.925781 667.621094 481.859375 666.832031 479.761719 666.832031 "/>
<path style=" stroke:none;fill-rule:nonzero;fill:rgb(31.799316%,32.199097%,32.199097%);fill-opacity:1;" d="M 477.265625 655.171875 C 477.675781 654.277344 477.710938 653.269531 477.359375 652.347656 C 476.882812 651.054688 475.707031 650.144531 473.421875 650.144531 C 473.160156 650.144531 472.894531 650.152344 472.609375 650.183594 L 416.972656 671.015625 C 415.0625 671.730469 414.09375 673.863281 414.808594 675.765625 C 415.347656 677.207031 416.742188 678.175781 418.269531 678.175781 L 419.5625 677.9375 L 475.207031 657.105469 C 476.128906 656.761719 476.859375 656.074219 477.265625 655.171875 "/>
<path style=" stroke:none;fill-rule:nonzero;fill:rgb(31.799316%,32.199097%,32.199097%);fill-opacity:1;" d="M 645.152344 588.527344 C 644.226562 588.527344 643.355469 588.898438 642.6875 589.5625 C 641.644531 590.601562 641.378906 592.210938 642.019531 593.570312 C 642.660156 594.957031 642.996094 596.621094 642.972656 598.253906 C 642.949219 600.28125 642.21875 602.078125 640.847656 603.453125 C 639.960938 604.339844 638.832031 605.027344 637.507812 605.511719 C 636.4375 605.898438 635.378906 606.09375 634.359375 606.09375 C 632.171875 606.09375 630.175781 605.210938 628.414062 603.472656 L 606.15625 581.261719 C 605.515625 580.621094 604.664062 580.269531 603.753906 580.269531 C 602.820312 580.269531 601.941406 580.636719 601.277344 581.300781 C 600.628906 581.949219 600.277344 582.804688 600.277344 583.722656 C 600.277344 584.632812 600.628906 585.5 601.277344 586.140625 L 623.109375 607.972656 C 623.75 608.613281 624.480469 609.367188 624.976562 610.230469 C 626.980469 613.683594 626.257812 617.804688 622.863281 621.191406 C 621.34375 622.40625 619.515625 623.054688 617.589844 623.054688 C 615.292969 623.054688 613.09375 622.128906 611.386719 620.449219 L 589.148438 598.273438 C 588.507812 597.632812 587.648438 597.277344 586.734375 597.277344 C 585.8125 597.277344 584.957031 597.632812 584.308594 598.28125 C 583.660156 598.925781 583.300781 599.789062 583.300781 600.707031 C 583.300781 601.625 583.652344 602.480469 584.300781 603.125 L 606.601562 625.382812 C 608.96875 627.730469 609.699219 630.578125 608.78125 633.863281 C 608.378906 635.316406 607.679688 636.546875 606.707031 637.515625 C 605.632812 638.589844 604.222656 639.34375 602.523438 639.761719 C 601.828125 639.925781 601.144531 640.015625 600.480469 640.015625 C 598.023438 640.015625 595.800781 638.917969 593.480469 636.585938 C 585.546875 628.609375 577.59375 620.628906 569.613281 612.707031 C 566.660156 609.777344 562.8125 608.164062 558.773438 608.164062 C 555.988281 608.164062 553.203125 608.949219 550.144531 610.828125 L 548.824219 611.710938 L 545.566406 606.53125 C 545 605.660156 544.089844 605.09375 542.6875 604.964844 C 541.777344 604.964844 540.925781 605.316406 540.285156 605.957031 C 539.210938 607.023438 538.980469 608.703125 539.726562 610.039062 C 541.394531 613.058594 541.792969 616.183594 540.820312 618.832031 C 540.210938 620.496094 540.644531 622.285156 541.976562 623.621094 C 542.640625 624.285156 543.515625 624.71875 545.195312 624.71875 C 545.542969 624.71875 545.9375 624.695312 546.371094 624.65625 C 547.3125 624.316406 548.335938 624.148438 549.40625 624.148438 C 551.453125 624.148438 553.621094 624.769531 555.6875 625.941406 C 556.210938 626.238281 556.792969 626.390625 557.390625 626.390625 C 558.3125 626.390625 559.179688 626.03125 559.828125 625.386719 C 560.558594 624.65625 560.914062 623.652344 560.8125 622.628906 C 560.730469 621.792969 560.359375 620.832031 558.238281 619.4375 L 553.40625 616.339844 L 556.546875 615.355469 C 557.292969 615.125 558.066406 615.007812 558.84375 615.007812 C 561.042969 615.007812 563.230469 615.96875 565.003906 617.726562 L 574.828125 627.527344 C 579.804688 632.519531 584.792969 637.511719 589.835938 642.433594 C 592.886719 645.40625 596.386719 646.925781 600.234375 646.925781 C 602.238281 646.925781 604.351562 646.503906 606.5 645.691406 C 608.339844 644.992188 610.003906 643.910156 611.4375 642.476562 C 613.914062 639.992188 615.492188 636.636719 615.890625 633.09375 L 612.636719 632.855469 L 615.097656 630.3125 L 616.664062 629.878906 L 617.3125 629.878906 C 621.679688 629.878906 625.46875 628.304688 628.585938 625.203125 C 631.382812 622.40625 632.871094 618.75 633.015625 614.347656 L 633.058594 612.960938 L 634.449219 612.871094 C 639.027344 612.589844 642.875 611.015625 645.585938 608.308594 C 647.148438 606.742188 648.335938 604.816406 649.105469 602.585938 C 650.453125 598.695312 650.140625 594.039062 648.300781 590.457031 C 647.769531 589.4375 646.828125 588.75 645.152344 588.527344 "/>
<path style=" stroke:none;fill-rule:nonzero;fill:rgb(31.799316%,32.199097%,32.199097%);fill-opacity:1;" d="M 203.964844 618.199219 C 202.183594 621.605469 198.671875 623.734375 194.804688 623.734375 C 193.1875 623.734375 191.570312 623.339844 191.488281 623.292969 L 188.691406 622.070312 L 188.789062 621.808594 C 186.863281 620.472656 185.421875 618.535156 184.753906 616.320312 C 183.953125 613.691406 184.289062 610.949219 185.714844 608.382812 C 187.542969 605.054688 190.824219 603.0625 194.476562 603.0625 C 196.097656 603.0625 197.699219 603.445312 199.28125 604.210938 C 201.878906 605.539062 203.777344 607.75 204.621094 610.417969 C 205.457031 613.015625 205.21875 615.773438 203.964844 618.199219 Z M 203.28125 600.042969 C 202.839844 599.753906 202.386719 599.492188 201.921875 599.253906 C 199.730469 598.132812 197.238281 597.542969 194.722656 597.542969 C 192.949219 597.542969 191.203125 597.828125 189.53125 598.394531 C 185.496094 599.765625 182.238281 602.714844 180.351562 606.695312 C 178.574219 610.441406 178.285156 614.476562 179.515625 618.347656 C 181.023438 623.070312 180.289062 627.492188 177.34375 631.484375 C 174.703125 635.039062 170.273438 637.25 165.769531 637.25 C 164.726562 637.25 163.6875 637.128906 162.703125 636.890625 C 161.496094 636.605469 160.339844 636.183594 159.257812 635.628906 C 155.078125 633.496094 152.289062 629.664062 151.589844 625.113281 C 150.679688 619.210938 153.296875 613.492188 158.277344 610.539062 L 172.132812 602.578125 C 175.824219 600.429688 179.523438 598.289062 183.109375 595.976562 C 186.945312 593.515625 189.457031 590.464844 190.585938 586.914062 C 192.457031 581.03125 189.519531 574.367188 183 571.066406 C 181.28125 570.3125 179.5625 569.929688 176.824219 569.929688 C 176.695312 569.929688 176.5625 569.929688 176.421875 569.929688 C 175.601562 569.992188 174.867188 570.425781 174.398438 571.132812 C 173.914062 571.847656 173.808594 572.714844 174.09375 573.554688 C 174.332031 574.257812 174.800781 574.800781 175.144531 575.011719 L 177.582031 575.382812 C 178.808594 575.382812 179.949219 575.652344 180.972656 576.175781 C 182.4375 576.921875 183.671875 578.203125 184.625 579.964844 C 186.242188 582.9375 185.773438 585.691406 183.1875 588.371094 C 181.515625 590.109375 179.546875 591.664062 177.507812 592.875 C 171.316406 596.597656 165.046875 600.207031 158.703125 603.683594 C 152.527344 607.054688 148.910156 610.808594 146.957031 615.847656 C 143.347656 625.179688 147.695312 636.160156 156.847656 640.835938 C 159.511719 642.203125 162.492188 642.917969 165.476562 642.917969 L 166.640625 642.878906 C 175.59375 642.328125 181.984375 637.316406 185.125 628.386719 L 185.699219 626.738281 L 187.257812 627.527344 C 189.847656 628.847656 192.414062 629.515625 194.902344 629.515625 C 197.902344 629.515625 200.894531 628.535156 203.773438 626.613281 C 208.171875 623.671875 210.777344 618.734375 210.738281 613.394531 C 210.71875 607.988281 207.992188 603.117188 203.28125 600.042969 "/>
<path style=" stroke:none;fill-rule:nonzero;fill:rgb(31.799316%,32.199097%,32.199097%);fill-opacity:1;" d="M 683.175781 357.851562 C 683.597656 362.207031 680.820312 366.242188 676.433594 367.359375 C 675.726562 367.539062 675.011719 367.628906 674.285156 367.628906 C 670.304688 367.628906 666.789062 364.898438 665.730469 360.96875 C 664.527344 356.273438 667.363281 351.449219 672.050781 350.210938 C 672.777344 350.015625 673.539062 349.921875 674.300781 349.921875 C 678.261719 349.921875 681.863281 352.585938 682.894531 356.261719 L 682.5 354.84375 L 683.484375 357.730469 Z M 701.109375 326.074219 C 699.914062 322.402344 697.535156 319.546875 694.03125 317.570312 L 692.710938 316.824219 L 693.449219 315.496094 C 696.125 310.6875 695.820312 306.503906 695.097656 303.832031 C 694.449219 301.429688 693.164062 299.167969 691.390625 297.3125 C 688.808594 294.605469 684.519531 292.792969 680.589844 292.792969 C 679.664062 292.800781 678.8125 293.222656 678.253906 293.96875 C 677.6875 294.714844 677.5 295.664062 677.753906 296.566406 C 678.105469 297.871094 679.320312 298.78125 680.8125 298.78125 C 685.28125 298.78125 688.070312 301.042969 689.414062 305.996094 C 690.269531 310.941406 687.5625 315.035156 682.519531 316.421875 L 673.855469 318.78125 C 672.175781 319.234375 671.199219 320.910156 671.613281 322.566406 C 671.953125 323.820312 673.054688 324.71875 675.011719 324.71875 C 675.121094 324.71875 675.234375 324.710938 675.351562 324.710938 L 685.101562 322.074219 C 685.773438 321.894531 686.453125 321.808594 687.132812 321.808594 C 688.503906 321.808594 689.867188 322.171875 691.171875 322.902344 C 693.34375 324.105469 694.878906 326.023438 695.5 328.296875 C 695.789062 329.386719 695.871094 330.527344 695.746094 331.675781 C 695.320312 335.472656 692.648438 338.394531 688.601562 339.492188 L 682.460938 341.140625 C 678.804688 342.109375 675.144531 343.078125 671.511719 344.125 C 669.566406 344.683594 667.617188 344.96875 665.707031 344.96875 C 662.367188 344.96875 659.113281 344.140625 655.78125 342.429688 C 650.261719 339.589844 645.339844 335.261719 640.28125 328.804688 C 639.214844 327.4375 638.238281 326.007812 637.015625 324.210938 C 636.476562 323.410156 635.566406 322.933594 634.582031 322.933594 C 634.0625 322.933594 633.539062 323.074219 633.074219 323.34375 C 631.910156 324.007812 631.34375 325.371094 632.113281 327.566406 C 638.417969 336.746094 646.644531 346.644531 659.898438 350.488281 L 661.441406 350.933594 L 660.921875 352.457031 C 659.523438 356.492188 659.261719 360.160156 660.136719 363.359375 C 661.003906 366.570312 662.988281 369.203125 666.027344 371.1875 C 668.535156 372.804688 671.421875 373.664062 674.375 373.664062 C 678.449219 373.664062 682.214844 372.074219 684.980469 369.203125 C 687.503906 366.5625 688.914062 363.460938 689.183594 359.976562 C 689.308594 358.160156 689.160156 356.445312 688.71875 354.859375 C 688.144531 352.734375 687.027344 350.703125 685.40625 348.839844 L 683.8125 347.011719 L 691.015625 345.027344 C 699.050781 342.632812 703.382812 334.472656 701.109375 326.074219 "/>
<path style=" stroke:none;fill-rule:nonzero;fill:rgb(31.799316%,32.199097%,32.199097%);fill-opacity:1;" d="M 689.785156 495.421875 C 689.40625 495.421875 688.921875 495.46875 688.265625 495.566406 C 686.109375 496.476562 684.148438 497.8125 682.261719 499.621094 L 680.253906 501.5625 L 672.808594 464.378906 L 689.621094 461.132812 C 690.480469 460.96875 691.21875 460.476562 691.710938 459.746094 C 692.054688 459.230469 692.410156 458.441406 692.097656 456.882812 C 691.925781 456.019531 691.425781 455.277344 690.683594 454.800781 C 690.242188 454.511719 689.742188 454.339844 688.800781 454.339844 C 688.621094 454.339844 688.429688 454.347656 688.21875 454.355469 L 670.789062 458.1875 L 665.941406 432.699219 C 665.773438 431.851562 665.289062 431.113281 664.574219 430.628906 C 664.105469 430.304688 663.582031 430.125 662.589844 430.125 C 662.425781 430.125 662.261719 430.125 662.074219 430.140625 C 661.210938 430.304688 660.464844 430.800781 659.988281 431.515625 C 659.503906 432.246094 659.339844 433.109375 659.511719 433.960938 L 664.84375 459.769531 L 647.917969 462.625 C 647.039062 462.769531 646.246094 463.273438 645.765625 464.015625 C 645.4375 464.503906 645.121094 465.214844 645.292969 466.71875 C 645.40625 467.621094 645.890625 468.449219 646.636719 468.972656 C 647.007812 469.234375 647.484375 469.480469 648.433594 469.480469 C 649.023438 469.480469 649.730469 469.382812 650.589844 469.195312 L 665.878906 465.796875 L 673.203125 503.046875 L 670.601562 502.015625 C 668.035156 500.996094 665.640625 500.496094 663.277344 500.496094 C 662.238281 500.496094 661.269531 501.015625 660.679688 501.898438 C 660.203125 502.605469 660.054688 503.433594 660.226562 504.417969 C 660.480469 505.894531 661.746094 507 663.253906 507.046875 C 668.558594 507.1875 673.203125 510.839844 676.011719 517.070312 C 676.589844 518.359375 677.902344 519.203125 679.367188 519.203125 L 679.96875 519.148438 C 680.984375 519.003906 681.886719 518.425781 682.460938 517.570312 C 682.835938 517.003906 683.050781 516.339844 683.074219 515.652344 C 683.175781 511.789062 684.160156 508.355469 685.914062 505.746094 C 687.183594 503.828125 688.824219 502.410156 690.792969 501.523438 C 691.359375 501.269531 691.828125 500.875 692.15625 500.375 C 692.597656 499.71875 692.761719 498.949219 692.648438 498.085938 C 692.523438 497.085938 691.949219 496.226562 691.070312 495.722656 C 690.761719 495.550781 690.433594 495.421875 689.785156 495.421875 "/>
<path style=" stroke:none;fill-rule:nonzero;fill:rgb(100%,79.998779%,40.39917%);fill-opacity:1;" d="M 375.769531 244.339844 L 362.308594 252.5625 L 365.84375 260.179688 L 373.683594 253.878906 L 374.914062 303.550781 L 384.574219 303.550781 L 383.339844 244.195312 L 375.769531 244.339844 "/>
<path style=" stroke:none;fill-rule:nonzero;fill:rgb(100%,79.998779%,40.39917%);fill-opacity:1;" d="M 301.5625 509.613281 L 305.183594 506.257812 C 316.765625 495.113281 324.949219 486.359375 324.949219 475.023438 C 324.949219 466.074219 319.117188 457.042969 306.089844 457.042969 C 299.8125 457.042969 293.796875 459.191406 288.496094 464.820312 L 291.382812 471.21875 L 292.613281 472.222656 L 293.871094 471.171875 C 295.777344 469.5625 299.714844 466.871094 304.542969 466.871094 C 312.199219 466.871094 313.816406 471.835938 313.816406 475.976562 C 313.734375 483.835938 307.273438 490.828125 293.59375 503.84375 L 287.132812 510.652344 L 288.363281 517.320312 L 326.3125 517.320312 L 326.3125 516.074219 L 325.082031 507.476562 L 301.5625 509.613281 "/>
<path style=" stroke:none;fill-rule:nonzero;fill:rgb(100%,79.998779%,40.39917%);fill-opacity:1;" d="M 457.957031 488.425781 C 457.859375 488.425781 457.753906 488.4375 457.65625 488.4375 C 464.007812 485.613281 467.652344 480.417969 467.652344 474.1875 C 467.652344 466.691406 462.171875 459.132812 449.914062 459.132812 C 443.492188 459.132812 437.429688 461.4375 433.492188 465.386719 L 435.859375 472.015625 L 437.019531 473.113281 L 438.347656 472.171875 C 440.628906 470.554688 444.484375 468.816406 448.441406 468.816406 C 453.515625 468.816406 456.4375 471.21875 456.4375 475.394531 C 456.4375 480.988281 450.0625 483.015625 445.785156 483.015625 L 439.796875 484.257812 L 441.03125 492.3125 L 445.785156 492.3125 C 451.546875 492.3125 458.320312 494.761719 458.402344 501.683594 C 458.425781 503.988281 457.582031 506.199219 456.0625 507.753906 C 454.164062 509.675781 451.316406 510.652344 447.597656 510.652344 C 442.585938 510.652344 437.964844 508.527344 433.785156 507.648438 L 432.214844 516.265625 C 435.078125 518.152344 440.835938 520.335938 447.667969 520.335938 C 462.957031 520.335938 469.789062 511.039062 469.789062 501.816406 C 469.789062 494.390625 465.214844 488.425781 457.957031 488.425781 "/>
<path style=" stroke:none;fill-rule:nonzero;fill:rgb(100%,79.998779%,40.39917%);fill-opacity:1;" d="M 264.125 377.140625 L 277.324219 358.789062 C 277.78125 358.027344 278.203125 357.304688 278.613281 356.601562 C 278.601562 357.195312 278.601562 357.785156 278.601562 358.367188 L 279.835938 375.183594 Z M 295.894531 375.183594 L 289.324219 376.417969 L 288.09375 340.53125 L 278.070312 341.0625 L 252.703125 377.734375 L 253.9375 384.710938 L 278.601562 383.46875 L 279.835938 399.890625 L 289.324219 399.890625 L 289.324219 398.644531 L 288.09375 384.710938 L 297.125 383.46875 L 295.894531 375.183594 "/>
<path style=" stroke:none;fill-rule:nonzero;fill:rgb(100%,79.998779%,40.39917%);fill-opacity:1;" d="M 494.167969 361.078125 C 493.324219 360.558594 492.320312 360.414062 489.917969 359.953125 C 488.492188 359.472656 487.070312 359.097656 484.074219 358.433594 C 483.277344 358.132812 482.359375 357.804688 481.222656 357.804688 C 479.910156 357.804688 478.929688 357.867188 478.628906 358.542969 L 479.304688 347.421875 L 501.894531 346.175781 L 500.664062 337.484375 L 471.710938 338.558594 L 467.929688 366.558594 L 468.472656 368.078125 L 470.078125 367.851562 C 472.339844 367.539062 474.609375 367.257812 477.542969 367.257812 C 483.976562 367.257812 491.679688 369.082031 491.765625 377.789062 C 491.765625 384.550781 486.027344 388.089844 480.367188 388.089844 C 475.777344 388.089844 471.578125 386.554688 466.953125 385.5625 L 465.574219 394.015625 C 468.195312 395.753906 473.664062 397.773438 480.464844 397.773438 C 493.527344 397.773438 503.007812 389.007812 503.007812 376.929688 C 503.007812 370.050781 499.78125 364.265625 494.167969 361.078125 "/>
<path style=" stroke:none;fill-rule:nonzero;fill:rgb(90.19928%,90.19928%,90.19928%);fill-opacity:1;" d="M 467.757812 266.695312 L 483.179688 245.25 C 484.832031 242.480469 486.160156 240.132812 487.566406 237.539062 C 487.4375 240.308594 487.375 242.980469 487.375 245.492188 L 487.375 266.695312 Z M 497.074219 226.007812 L 486.5 226.007812 L 457.082031 268.074219 L 456.96875 268.234375 L 456.96875 274.972656 L 487.375 274.972656 L 487.375 292.792969 L 497.074219 292.792969 L 497.074219 274.972656 L 506.230469 274.972656 L 506.230469 266.695312 L 497.074219 266.695312 L 497.074219 226.007812 "/>
<path style=" stroke:none;fill-rule:nonzero;fill:rgb(100%,100%,100%);fill-opacity:1;" d="M 226.703125 479.808594 C 226.703125 468.730469 220.386719 462.058594 210.742188 462.058594 C 204.429688 462.058594 198.589844 465.992188 195.730469 471.589844 C 195.015625 472.78125 194.539062 474.328125 194.539062 476.234375 C 194.777344 488.980469 200.617188 498.390625 211.574219 498.390625 C 220.625 498.390625 226.703125 490.886719 226.703125 479.808594 Z M 229.679688 435.140625 C 227.535156 435.019531 224.796875 435.140625 221.820312 435.613281 C 205.378906 438.355469 196.683594 450.386719 194.898438 463.132812 L 195.253906 463.132812 C 198.949219 458.246094 205.378906 454.199219 213.957031 454.199219 C 227.652344 454.199219 237.304688 464.085938 237.304688 479.210938 C 237.304688 493.386719 227.652344 506.492188 211.574219 506.492188 C 195.015625 506.492188 184.175781 493.628906 184.175781 473.496094 C 184.175781 458.246094 189.65625 446.214844 197.28125 438.59375 C 203.710938 432.28125 212.289062 428.347656 222.058594 427.15625 C 225.15625 426.679688 227.773438 426.5625 229.679688 426.5625 L 229.679688 435.140625 "/>
<path style=" stroke:none;fill-rule:nonzero;fill:rgb(100%,100%,100%);fill-opacity:1;" d="M 401.105469 531.21875 L 401.105469 538.125 L 367.394531 608.644531 L 356.550781 608.644531 L 390.144531 540.148438 L 390.144531 539.914062 L 352.265625 539.914062 L 352.265625 531.21875 L 401.105469 531.21875 "/>
<path style=" stroke:none;fill-rule:nonzero;fill:rgb(100%,100%,100%);fill-opacity:1;" d="M 538.804688 437.203125 C 538.804688 444.945312 544.640625 449.113281 553.574219 451.496094 C 560.246094 449.234375 565.367188 444.46875 565.367188 437.441406 C 565.367188 431.246094 561.675781 424.8125 552.265625 424.8125 C 543.570312 424.8125 538.804688 430.53125 538.804688 437.203125 Z M 567.632812 475.917969 C 567.632812 466.507812 561.082031 461.980469 550.597656 459 C 541.546875 461.621094 536.65625 467.578125 536.65625 474.964844 C 536.304688 482.824219 542.261719 489.734375 552.148438 489.734375 C 561.554688 489.734375 567.632812 483.894531 567.632812 475.917969 Z M 525.941406 476.394531 C 525.941406 466.625 531.773438 459.714844 541.304688 455.664062 L 541.1875 455.308594 C 532.609375 451.257812 528.917969 444.585938 528.917969 437.917969 C 528.917969 425.648438 539.28125 417.308594 552.859375 417.308594 C 567.871094 417.308594 575.371094 426.71875 575.371094 436.367188 C 575.371094 442.921875 572.160156 449.949219 562.628906 454.476562 L 562.628906 454.832031 C 572.28125 458.644531 578.234375 465.433594 578.234375 474.84375 C 578.234375 488.304688 566.679688 497.359375 551.90625 497.359375 C 535.707031 497.359375 525.941406 487.710938 525.941406 476.394531 "/>
<path style=" stroke:none;fill-rule:nonzero;fill:rgb(100%,100%,100%);fill-opacity:1;" d="M 254.597656 247.511719 C 254.597656 257.15625 260.4375 263.949219 269.484375 263.949219 C 276.519531 263.949219 281.992188 260.492188 284.734375 255.847656 C 285.328125 254.894531 285.6875 253.703125 285.6875 252.035156 C 285.6875 238.816406 280.804688 228.6875 269.84375 228.6875 C 260.914062 228.6875 254.597656 236.550781 254.597656 247.511719 Z M 250.785156 292.058594 C 253.050781 292.300781 255.671875 292.058594 259.242188 291.703125 C 265.320312 290.867188 271.039062 288.367188 275.441406 284.199219 C 280.566406 279.550781 284.257812 272.761719 285.6875 263.589844 L 285.328125 263.589844 C 281.042969 268.832031 274.851562 271.929688 267.105469 271.929688 C 253.167969 271.929688 244.234375 261.445312 244.234375 248.222656 C 244.234375 233.574219 254.835938 220.707031 270.679688 220.707031 C 286.523438 220.707031 296.289062 233.574219 296.289062 253.347656 C 296.289062 270.382812 290.570312 282.292969 282.949219 289.679688 C 276.992188 295.515625 268.773438 299.089844 260.4375 300.042969 C 256.625 300.636719 253.289062 300.757812 250.785156 300.636719 L 250.785156 292.058594 "/>
</g>
</svg>
