<?xml version="1.0" standalone="no"?>
<!DOCTYPE svg PUBLIC "-//W3C//DTD SVG 1.1//EN" "http://www.w3.org/Graphics/SVG/1.1/DTD/svg11.dtd">
<svg xmlns="http://www.w3.org/2000/svg">
<metadata>Generated by Fontastic.me</metadata>
<defs>
<font id="alchemy-symbols" horiz-adv-x="512">
<font-face font-family="alchemy-symbols" units-per-em="512" ascent="480" descent="-32"/>
<missing-glyph horiz-adv-x="512" />

<glyph unicode="&#97;" d="M40 297l114 0-123-221c-2-3-2-7 0-11 2-3 5-5 9-5l432 0c6 0 11 5 11 11 0 2-1 5-2 6l-123 220 114 0c6 0 11 5 11 11 0 6-5 11-11 11l-126 0-81 144c-1 4-5 6-9 6-4 0-8-2-9-6l-81-144-126 0c-6 0-11-5-11-11 0-6 5-11 11-11z m151 22l65 117 65-117z m-133-237l121 215 154 0 121-215z"/>
<glyph unicode="&#98;" d="M499 46l-45 0-93 222 84 200 46 0c6 0 11 5 11 11 0 7-5 12-11 12l-108 0c-7 0-12-5-12-12 0-6 5-11 12-11l36 0-72-169-74 177c-1 1-2 3-4 4 0 1-1 2-3 2l-1 1-3 0c-1 0-2 0-4-1l-1 0c-2-1-4-2-5-5-1 0-1-1-2-2l-83-198-80 191 36 0c6 0 12 5 12 11 0 7-6 12-12 12l-108 0c-6 0-11-5-11-12 0-6 5-11 11-11l46 0 93-222-84-200-46 0c-6 0-12-5-12-12 0-6 6-11 12-11l108 0c6 0 11 5 11 11 0 7-5 12-11 12l-36 0 71 169 75-177c0-2 1-4 3-5 1-1 2-1 3-2l1 0 4 0c0 0 2 0 3 0l1 0c3 1 5 3 6 5 1 1 1 2 1 3l83 197 80-190-35 0c-7 0-12-5-12-12 0-6 5-11 12-11l107 0c7 0 12 5 12 11 0 7-5 12-12 12z m-165 221l-81-193-73 172 82 194z"/>
<glyph unicode="&#99;" d="M33 12l102 0c7 0 13 6 13 12 0 7-6 13-13 13l-35 0 116 274c13-6 27-9 41-9 13 0 26 3 38 8l115-273-33 0c-7 0-13-6-13-13 0-6 6-12 13-12l102 0c6 0 12 6 12 12 0 7-6 13-12 13l-41 0-120 286c25 19 39 48 39 79 0 55-45 100-100 100-55 0-100-45-100-100 0-30 13-58 37-77l-122-288-39 0c-6 0-12-6-12-13 0-6 6-12 12-12z m149 390c0 42 33 75 75 75 41 0 75-33 75-75 0-41-34-75-75-75-42 0-75 34-75 75z"/>
<glyph unicode="&#100;" d="M91 490l0-358c0-6 5-11 12-11l97 0 0-102c0-6 5-11 11-11l95 0c7 0 12 5 12 11l0 102 86 0c7 0 12 5 12 11l0 358c0 6-5 11-12 11l-301 0c-7 0-12-5-12-11z m120-346l-97 0 0 334 279 0 0-334-87 0c-6 0-11-5-11-12l0-101-72 0 0 101c0 7-5 12-12 12z"/>
<glyph unicode="&#101;" d="M229 492c-7 0-13-6-13-13l0-126-112 0c-7 0-12-6-12-13l0-315c0-7 5-12 12-12l304 0c7 0 12 5 12 12l0 315c0 7-5 13-12 13l-109 0 0 126c0 7-6 13-13 13-7 0-13-6-13-13l0-126-31 0 0 126c0 7-6 13-13 13z m-112-454l0 289 278 0 0-289-278 0z"/>
<glyph unicode="&#102;" d="M65 125l0 0c18 0 35 7 50 19l-1-5c-1-3 0-6 1-9 2-2 5-4 8-4l2 0c5 0 9 3 10 9l23 126c0 3-1 6-3 8-1 2-3 3-6 4-6 1-12-3-13-9l-2-12c-1 1-2 2-3 3-11 12-26 18-42 18l-1 0c-39 0-74-31-82-72 0-4-1-8-1-14 0-16 6-32 17-43 11-12 26-19 43-19z m-38 62c0 4 0 7 1 10 5 30 32 54 59 54l1 0c22 0 38-16 38-40 0-3-1-6-1-10-5-29-32-54-60-54-22 0-38 17-38 40z m257-57c2-2 5-4 8-4l2 0c5 0 10 3 10 9l23 126c0 3-1 6-3 8-1 2-3 3-6 4-6 1-12-3-13-9l-2-12c-1 1-2 2-3 3-11 12-26 18-42 18l-1 0c-39 0-74-31-82-72 0-4-1-9-1-14 0-16 6-32 17-43 11-12 26-19 43-19l0 0c18 0 36 7 50 19l-1-5c-1-3 0-6 1-9z m11 81c0-3-1-6-1-10-5-29-32-54-60-54-22 0-38 17-38 40 0 4 0 7 1 10 5 30 32 54 59 54l1 0c22 0 38-16 38-40z m158-81c2-2 5-4 8-4l2 0c5 0 10 3 10 9l23 126c0 3-1 6-3 8-1 2-3 3-6 4-6 1-12-3-13-9l-2-12c-1 1-2 2-3 3-11 12-26 18-42 18l-1 0c-39 0-74-31-82-72 0-4-1-8-1-14 0-16 6-32 17-43 11-12 26-19 43-19l0 0c18 0 36 7 50 19l-1-5c-1-3 0-6 1-9z m11 81c0-3-1-6-1-10-5-29-32-54-60-54-22 0-38 17-38 40 0 4 0 7 1 10 5 30 32 54 59 54l1 0c22 0 38-16 38-40z m34 114l-470 0c-6 0-11-5-11-11 0-6 5-12 11-12l470 0c6 0 11 6 11 12 0 6-5 11-11 11z"/>
<glyph unicode="&#103;" d="M314 389c5-32 33-56 66-56 37 0 67 30 67 67 0 37-30 68-67 68-33 0-61-24-66-56l-47 0 0 78c0 6-6 11-12 11-6 0-12-5-12-11l0-78-57 0c-7 0-12-5-12-12 0-6 5-11 12-11l57 0 0-72c-82-4-146-72-146-154 0-86 70-155 155-155 86 0 155 69 155 155 0 79-61 146-140 154l0 72z m69-226c0-73-58-132-131-132-72 0-131 59-131 132 0 72 59 131 131 131 73 0 131-59 131-131z m-3 281c24 0 43-20 43-44 0-24-19-43-43-43-24 0-44 19-44 43 0 24 20 44 44 44z"/>
<glyph unicode="&#104;" d="M255 14c84 0 153 68 153 152 0 80-61 146-140 152l0 61 45-45c5-4 12-4 17 0 2 2 3 5 3 8 0 3-1 6-3 8l-45 46 63 0c7 0 12 5 12 11 0 7-5 12-12 12l-63 0 45 45c2 2 3 5 3 8 0 3-1 6-3 8-5 5-12 5-17 0l-45-45 0 64c0 6-5 12-12 12-6 0-11-6-11-12l0-64-45 45c-5 5-12 5-17 0-2-2-3-5-3-8 0-3 1-6 3-8l45-45-63 0c-7 0-12-5-12-12 0-6 5-11 12-11l63 0-45-46c-2-2-3-5-3-8 0-3 1-6 3-8 5-4 12-4 17 0l45 45 0-60c-80-6-143-72-143-153 0-84 69-152 153-152z m0 23c-71 0-129 58-129 129 0 72 58 130 129 130 72 0 130-58 130-130 0-71-58-129-130-129z"/>
<glyph unicode="&#105;" d="M495 113c0 0-1 0-1 0l0 0c-1 0-2 1-3 3-1 3-6 15-6 44 0 42-28 64-44 73-2 1-3 2-5 3 34 15 55 48 55 86 0 34-18 66-48 83-14 8-30 12-46 12l-381 0c-4 0-8-2-10-5-2-4-2-8 0-11l173-311c2-3 6-6 10-6 4 0 8 3 10 6l76 137 119 0c1 0 5 0 11-2 8-3 24-9 36-20 14-13 21-28 21-45 0-27 3-44 10-55 5-11 15-15 21-15 3 0 5 0 7 1 3 1 4 2 5 4 2 3 3 6 2 9-1 6-7 9-12 9z m-98 138l-109 0 80 143 29 0c39 0 71-33 71-72 0-40-31-71-71-71z m-54 144l-154-276-154 276z"/>
<glyph unicode="&#106;" d="M246 50c0-1 1-3 3-4 1-1 2-2 3-2l1-1 4 0c1 0 2 0 4 0l1 1c2 1 4 2 6 5 0 0 1 1 1 2l166 395c1 4 1 8-1 11-1 2-3 4-6 5-1 1-3 1-5 1-5 0-9-3-11-7l-155-368-154 368-1 1c-2 4-7 6-11 6-2 0-4 0-5-1-3-1-6-3-7-6-1-4-1-7 0-10z m11 235c39 0 69 24 69 53 0 37-36 45-61 51-27 7-41 11-41 27 0 12 15 22 33 22 23 0 36-13 37-14 4-5 11-6 17-1 3 3 4 6 4 9 0 3-1 6-3 8l0 0c-4 4-22 22-55 22-31 0-57-21-57-46 0-36 32-44 58-50l3 0c26-7 41-11 41-28 0-16-21-29-45-29-27 0-48 18-48 18-4 5-12 5-17 0-4-5-4-12 1-17 0 0 27-25 64-25z"/>
<glyph unicode="&#107;" d="M110 373c3 0 6 1 10 1l105-250c-15-11-23-27-23-45 0-31 25-56 56-56 31 0 56 25 56 56 0 18-8 34-23 45l106 250c3 0 7-1 11-1 30 0 56 25 56 56 0 31-26 56-56 56-31 0-56-25-56-56 0-18 8-35 23-45l-105-250c-8 1-16 1-23 0l-105 249c15 11 24 28 24 46 0 31-26 56-56 56-31 0-56-25-56-56 0-31 25-56 56-56z m265 56c0 18 14 33 33 33 18 0 33-15 33-33 0-18-15-33-33-33-19 0-33 15-33 33z m-150-350c0 18 15 33 33 33 18 0 33-15 33-33 0-18-15-33-33-33-18 0-33 15-33 33z m-149 350c0 18 15 33 34 33 18 0 33-15 33-33 0-18-15-33-33-33-19 0-34 15-34 33z"/>
<glyph unicode="&#108;" d="M182 89c2-4 6-6 10-6 4 0 8 2 10 6l83 150 206 0c6 0 11 5 11 12 0 5-4 11-11 11l-193 0 74 132 119 0c6 0 11 5 11 12 0 6-5 11-11 11l-473 0c-4 0-8-2-10-5-2-4-2-8 0-11z m-145 306l310 0-155-278z"/>
<glyph unicode="&#109;" d="M455 407c-4 2-9 2-13-1l-110-79 0 68c0 5-3 10-7 12-4 2-9 2-13-1l-110-79 0 68c0 5-3 10-7 12-4 2-10 2-13-1l-131-93c-5-4-7-12-3-18 3-4 7-5 11-5 2 0 5 0 7 2l110 79 0-69c0 0 0 0 0 0 0 0 0-1 0-1 0-1 0-1 0-1 1-1 1-1 1-2 0 0 0 0 0-1 0 0 1 0 1-1 0 0 0-1 1-1 0 0 0 0 0 0 0 0 0 0 0 0 0-1 1-2 1-2 1 0 1 0 1-1 1 0 1 0 2-1 0 0 0 0 1 0 0 0 1-1 1-1 1 0 1 0 1 0 1 0 2 0 3 0 0 0 0 0 0 0 0 0 0 0 0 0 1 0 2 0 2 0 1 0 1 0 1 0 1 0 1 0 2 0 0 1 0 1 0 1 1 0 1 0 2 1 0 0 0 0 0 0 0 0 0 0 0 0l110 79 0-69c0 0 0 0 0 0 0 0 0-1 0-1 1-1 1-1 1-1 0-1 0-1 0-2 0 0 0 0 0-1 1 0 1 0 1-1 0 0 0 0 1-1 0 0 0 0 0 0 0 0 0 0 0 0 1-1 1-2 2-2 0 0 0 0 0-1 1 0 1 0 2-1 0 0 0 0 1 0 0 0 1-1 2-1 0 0 0 0 0 0 1 0 2 0 3 0 0 0 0 0 0 0 0 0 0 0 0 0 1 0 2 0 2 0 1 0 1 0 1 0 1 0 1 0 2 0 0 1 0 1 0 1 1 0 1 0 2 1 0 0 0 0 0 0 0 0 1 0 1 0l109 79 0-69c0-7 6-12 13-12 7 0 13 5 13 12l0 93c0 5-3 10-7 12z m0-146c-4 3-9 2-13 0l-110-79 0 68c0 5-3 9-7 11-4 3-9 2-13 0l-110-79 0 68c0 5-3 9-7 11-4 3-10 2-13 0l-131-94c-5-4-7-12-3-17 3-4 7-6 11-6 2 0 5 1 7 3l110 78 0-68c0 0 0 0 0 0 0-1 0-1 0-2 0 0 0 0 0-1 1 0 1 0 1-1 0 0 0-1 0-1 0 0 1-1 1-1 0 0 0-1 1-1 0 0 0 0 0 0 0-1 0-1 0-1 0 0 1-1 1-1 1-1 1-1 1-1 1 0 1-1 2-1 0 0 0 0 1-1 0 0 1 0 1 0 1 0 1 0 1 0 1-1 2-1 3-1 0 0 0 0 0 0 0 0 0 0 0 0 1 0 2 0 2 0 1 0 1 1 1 1 1 0 1 0 2 0 0 0 0 0 0 0 1 1 1 1 2 1 0 0 0 0 0 0 0 1 0 1 0 1l110 78 0-68c0 0 0 0 0 0 0-1 0-1 0-2 1 0 1 0 1-1 0 0 0 0 0-1 0 0 0-1 0-1 1 0 1-1 1-1 0 0 0-1 1-1 0 0 0 0 0 0 0-1 0-1 0-1 1 0 1-1 2-1 0-1 0-1 0-1 1 0 1-1 2-1 0 0 0 0 1-1 0 0 1 0 2 0 0 0 0 0 0 0 1-1 2-1 3-1 0 0 0 0 0 0 0 0 0 0 0 0 1 0 2 0 2 0 1 0 1 1 1 1 1 0 1 0 2 0 0 0 0 0 0 0 1 1 1 1 2 1 0 0 0 0 0 0 0 1 1 1 1 1l109 78 0-68c0-7 6-13 13-13 7 0 13 6 13 13l0 93c0 5-3 9-7 11z"/>
<glyph unicode="&#110;" d="M418 341c-43 0-80-33-84-76l-151 0c-5 43-41 76-84 76-47 0-85-38-85-85 0-47 38-85 85-85 41 0 77 31 83 71l152 0c7-40 42-71 84-71 47 0 85 38 85 85 0 47-38 85-85 85z m62-85c0-34-28-62-62-62-34 0-62 28-62 62 0 34 28 62 62 62 34 0 62-28 62-62z m-319 0c0-34-28-62-62-62-35 0-63 28-63 62 0 34 28 62 63 62 34 0 62-28 62-62z"/>
<glyph unicode="&#111;" d="M98 171l320 0c46 0 84 38 84 85 0 47-38 85-84 85 0 0 0 0-1 0l-319 0c-47 0-85-38-85-85 0-47 38-85 85-85z m258 85c0 34 27 62 62 62l-1 4 1-4 0 0c34 0 62-28 62-62 0-34-28-62-62-62-35 0-62 28-62 62z m-23 0c0-24 10-46 27-62l-204 0c17 16 27 38 27 62 0 24-10 46-27 62l204 0c-17-16-27-38-27-62z m-297 0c0 34 28 62 62 62l0 0c34 0 62-28 62-62 0-34-28-62-62-62-34 0-62 28-62 62z m382-81z"/>
<glyph unicode="&#112;" d="M438 287c23 17 36 43 36 72 0 50-41 90-91 90l-81 0c-1 0-3 0-4 0-1 0-1 0-2-1-3 0-5-2-6-4l-131-181-131 181-1 1c-2 1-4 3-6 3-2 1-3 1-4 1-7 0-12-7-12-12l0-340c0-7 6-12 12-12 7 0 12 5 12 12l0 304 119-165c2-4 6-5 10-5l1 0c4 0 7 1 10 4l119 165 0-303c0-7 5-12 11-12 1 0 1 0 2 0 0 0 0 0 1 0l104 0c57 0 104 46 104 104 0 45-29 84-72 98z m-124 6l0 132 69 0c36-1 66-30 66-66 0-37-30-66-66-66l-69 0z m171-104c0-45-35-80-79-80l-92 0 0 159 92 0c43 0 79-36 79-79z"/>
<glyph unicode="&#113;" d="M423 458l-85 0 0 0c-6 1-12-3-14-8l-136-324-137 325 0 1c-3 4-8 7-13 7-2 0-4-1-5-1-3-2-6-4-7-8-2-3-2-7 0-10l148-353c1-1 1-2 1-3 1-2 3-8 9-8l110 0c60 0 126 46 151 105 3 7 5 13 6 19 6 26 3 50-10 67-7 9-15 15-25 20 29 17 54 43 66 73 2 5 4 10 5 15 6 23 3 44-9 59-11 16-31 24-55 24z m-125-355l-90 0 69 164 98 0c19 0 33-6 42-17 9-12 12-28 7-47-1-4-3-9-5-14-19-47-75-86-121-86z m58 192l-67 0 57 136 74 0c15 0 27-5 35-14 7-9 9-23 6-38-1-4-3-7-4-11l0-1c-17-39-63-72-101-72z"/>
<glyph unicode="&#114;" d="M123 189l-102 0c-6 0-11-5-11-11 0-6 5-12 11-12l225 0 0-72c0-6 5-11 12-11 6 0 11 5 11 11l0 72 224 0c6 0 11 6 11 12 0 6-5 11-11 11l-102 0c-50 0-91 41-91 91 0 50 41 90 91 90 50 0 91-40 91-90 0-5-1-9-1-14-1-3 0-6 2-8 1-3 4-4 7-5 1 0 1 0 2 0 5 0 10 4 11 10 1 5 1 11 1 17 0 62-51 113-113 113-63 0-113-51-113-113 0-36 17-70 45-91l-54 0 0 119c0 7-5 12-11 12-7 0-12-5-12-12l0-119-55 0c29 21 46 55 46 91 0 62-51 113-114 113-62 0-113-51-113-113 0-6 0-12 1-17 1-6 6-10 11-10 1 0 2 0 2 0 6 1 11 7 10 13-1 5-1 9-1 14 0 50 40 90 90 90 50 0 91-40 91-90 0-50-41-91-91-91z m85 188c0-27 21-48 48-48 26 0 48 21 48 48 0 26-22 47-48 47-27 0-48-21-48-47z m22 0c0 14 12 25 26 25 14 0 26-11 26-25 0-15-12-26-26-26-14 0-26 11-26 26z"/>
<glyph unicode="&#115;" d="M170 218c-53 0-96-43-96-96 0-53 43-96 96-96 37 0 72 22 87 56 16-34 50-56 87-56 53 0 97 43 97 96 0 53-44 96-97 96-28 0-54-13-73-34l0 93 38 0c7 0 12 6 12 12 0 7-5 13-12 13l-38 0 0 37 38 0c7 0 12 6 12 13 0 6-5 12-12 12l-38 0 0 99c0 7-5 12-12 12-7 0-12-5-12-12l0-99-38 0c-6 0-12-6-12-12 0-7 6-13 12-13l38 0 0-37-38 0c-6 0-12-6-12-13 0-6 6-12 12-12l38 0 0-98c-18 24-47 39-77 39z m71-96c0-40-32-72-71-72-40 0-72 32-72 72 0 39 32 71 72 71 39 0 71-32 71-71z m32 0c0 39 32 71 71 71 40 0 72-32 72-71 0-40-32-72-72-72-39 0-71 32-71 72z"/>
<glyph unicode="&#116;" d="M492 269c0 7-5 12-12 12l-127 0c-7 0-12-5-12-12 0-6 5-11 12-11l41 0-122-191 0 413 155 0c7 0 12 5 12 12 0 7-5 13-12 13l-336 0c-7 0-13-6-13-13 0-6 6-12 13-12l155 0 0-206c0 0 0-1 0-1l-150-234-58 0c-6 0-12-5-12-11 0-7 6-12 12-12l128 0c6 0 11 5 11 12 0 6-5 11-11 11l-43 0 123 192 0-203c0-2 1-4 1-5 1-4 3-6 5-8 2-1 5-2 7-2 4 0 8 2 10 6l153 239 58 0c7 0 12 5 12 11z"/>
<glyph unicode="&#117;" d="M163 99c3-3 6-6 11-6 4 0 8 3 10 6l73 123 74-123c2-3 6-6 10-6l0 0c4 0 8 3 10 6l155 261c1 2 2 5 1 9-1 3-3 5-5 7-6 3-13 1-17-4l-144-244-73 120 0 138 34 0c7 0 12 5 12 12 0 7-5 12-12 12l-93 0c-7 0-12-5-12-12 0-7 5-12 12-12l36 0 0-138-71-119-145 243c-3 5-11 7-16 4-3-2-5-4-6-7 0-4 0-7 2-9z"/>
<glyph unicode="&#118;" d="M497 369l-479 0c-7 0-12-5-12-12l0-202c0-7 5-12 12-12l479 0c6 0 12 5 12 12l0 202c0 7-6 12-12 12z m-467-40l16 16 34 0-50-50z m0-69l85 85 37 0-122-122z m14-93l-14 0 0 21 157 157 34 0z m72 0l-37 0 177 178 37 0z m69 0l-34 0 177 178 34 0z m69 0l-34 0 177 178 34 0z m230 20l-20-20-34 0 54 54z m0 69l-89-89-34 0 123 123z m0 69l-158-158-37 0 177 178 18 0z"/>
<glyph unicode="&#119;" d="M467 475c6 0 12 5 12 12 0 6-6 11-12 11l-107 0c-6 0-11-5-11-11 0-7 5-12 11-12l31 0-59-90c-22 12-47 18-72 18-25 0-49-6-71-17l-58 90 31 0c6 0 11 5 11 11 0 7-5 12-11 12l-107 0c-7 0-12-5-12-12 0-6 5-11 12-11l49 0 66-103c-38-28-61-73-61-120 0-48 23-93 61-121l-53-82-50 0c-6 0-12-5-12-12 0-6 6-11 12-11l107 0c6 0 12 5 12 11 0 7-6 12-12 12l-29 0 44 70c22-12 46-18 71-18 25 0 50 6 72 18l45-70-29 0c-7 0-12-5-12-11 0-7 5-12 12-12l107 0c6 0 11 5 11 12 0 6-5 11-11 11l-50 0-53 83c37 29 59 73 59 120 0 46-22 90-59 119l66 103z m-128-322l-64 99 64 101c31-25 49-61 49-100 0-40-18-76-49-100z m-19-13c-19-10-39-15-60-15-20 0-40 5-58 14l59 92z m-118 226c18 9 38 14 58 14 21 0 41-5 60-15l-59-91z m-70-113c0 39 19 76 50 101l65-102-65-101c-31 25-50 62-50 102z"/>
<glyph unicode="&#120;" d="M494 343l-37 0c-6 0-11-5-11-12 0-5 3-10 8-11l-31-49-31 49c5 2 8 6 8 11 0 7-5 12-11 12l-37 0c-7 0-12-5-12-12 0-6 5-11 12-11l12 0 36-55-385 0c-7 0-12-6-12-12 0-6 5-11 12-11l389 0-35-55-13 0c-7 0-12-5-12-11 0-7 5-12 12-12l37 0c6 0 11 5 11 12 0 5-3 9-8 11l27 42 27-42c-5-1-8-6-8-11 0-6 5-12 11-12l37 0c7 0 12 6 12 12 0 6-5 12-12 12l-13 0-40 62 45 70 12 0c7 0 12 5 12 11 0 7-5 12-12 12z"/>
<glyph unicode="&#121;" d="M461 407c-49 50-130 50-180 0-10-10-19-23-25-36-6 13-15 26-25 36-50 50-131 50-180 0-50-49-50-130 0-180 4-4 9-8 14-12 6-4 14-3 18 2 2 3 2 6 2 10-1 3-2 6-5 8-4 3-8 6-12 10-40 40-40 105 0 145 40 40 105 40 145 0 17-17 27-38 29-60l0-296c0-7 7-13 14-13 7 0 14 6 14 13l0 296c2 22 12 43 29 60 40 40 105 40 145 0 40-40 40-105 0-145-4-4-8-7-12-10-3-2-4-5-5-8 0-4 0-7 2-10 4-5 12-6 18-2 5 4 10 8 14 12 50 50 50 131 0 180z"/>
<glyph unicode="&#122;" d="M298 398c5-6 14-6 19 0l81 81c5 5 5 13 0 18-5 6-14 6-19 0l-35-35c-13 2-26 3-38 3-127 0-231-101-231-225 0-124 104-226 231-227l0 0c52 0 102 17 145 49 3 3 5 7 5 11 1 4-1 7-3 9-4 6-13 7-20 2-36-28-80-42-127-42-112 0-202 89-202 198 0 108 90 197 202 197 4 0 8 0 12-1l-20-20c-5-5-5-13 0-18z"/>
<glyph unicode="&#65;" d="M402 203c-11 0-21-2-31-7 2 10 3 20 3 30 0 118-27 212-121 212-35 0-68-19-90-51-4 13-12 24-23 32-14 10-30 14-47 11-17-2-31-11-41-25-5-7-8-14-10-22-2-9 4-18 12-20 9-3 16 6 18 15 1 3 3 7 5 10 5 6 11 11 19 12 24 3 35-12 36-27l0-156c0-7 6-13 13-13 8 0 14 6 14 13l0 45c0 3 0 20 0 26 0 68 48 126 94 123 63-4 94-98 94-185 1-68-42-123-94-123-8 0-13-6-13-13 0-8 5-14 13-14 28 0 54 12 74 32 8-34 39-59 75-59 43 0 77 34 77 77 0 42-34 77-77 77z m0-129c-28 0-51 23-51 52 0 7 1 14 4 20 1 2 1 3 2 5 9 16 26 26 45 26 29 0 52-23 52-51 0-29-23-52-52-52z"/>
<glyph unicode="&#66;" d="M260 482c-127 0-229-102-229-228 0-127 102-229 229-229 126 0 229 102 229 229 0 126-103 228-229 228z m0-433c-113 0-205 92-205 205 0 112 92 204 205 204 112 0 204-92 204-204 0-113-92-205-204-205z m157 237c-5 27-29 46-56 46-4 0-8-1-12-1-15-4-28-13-37-26-8-12-11-28-8-43 6-26 30-46 57-46 0 0 0 0 0 0 4 0 8 1 12 2 31 6 51 37 44 68z m-225-15c4 0 8 1 12 2 15 3 28 12 37 25 8 13 11 28 8 43-6 27-30 46-57 46-4 0-8-1-12-1-31-7-51-38-44-69 5-26 29-46 56-46 0 0 0 0 0 0z m38-58c-4 0-8-1-13-2-15-3-28-12-36-25-8-13-11-28-8-43 6-27 30-46 57-46 0 0 0 0 0 0 4 0 8 1 12 2 15 3 28 12 36 25 8 13 11 28 8 43-6 27-29 46-56 46z"/>
<glyph unicode="&#67;" d="M496 343c6 0 12 6 12 12 0 7-6 12-12 12l-65 0 15 16c2 1 2 2 3 4 1 2 1 4 1 5 0 6-5 12-12 12l-153 0c-6 0-12-6-12-12 0-6 6-12 12-12l126 0-13-13-202 0 15 16c1 1 2 2 3 4 1 2 1 4 1 5 0 6-6 12-12 12l-153 0c-7 0-12-6-12-12 0-6 5-12 12-12l126 0-13-13-144 0c-7 0-12-5-12-12 0-6 5-12 12-12l121 0-46-47c-2-2-3-5-3-8 0-4 1-7 3-9l0 0c3-3 6-5 10-5 23 0 45-9 62-25 15-15 24-35 25-56l-172 0c-7 0-12-5-12-12 0-7 5-12 12-12l170 0c-3-17-11-32-24-45-16-16-38-25-62-25-23 0-45 9-62 25-4 4-12 4-16 0-2-2-4-5-4-8 0-3 2-6 4-8 20-21 48-33 78-33 29 0 58 12 79 33 17 17 27 38 31 61l212 0c-4-17-12-32-24-45-17-16-39-25-63-25-23 0-45 9-62 25-4 4-12 4-16 0-4-4-4-12 0-16 21-21 48-33 78-33l1 0c29 0 57 12 79 33 16 17 27 38 30 61l48 0c6 0 12 5 12 12 0 7-6 12-12 12l-46 0c-2 27-13 53-32 72-16 16-35 26-57 30l47 48 88 0z m-167-47c-1-1-2-2-2-4-2-4-1-9 2-13l0 0c3-3 6-5 10-5 23 0 45-9 62-25 15-15 24-35 25-56l-212 0c-1 27-13 53-32 72-15 16-35 26-56 30l47 48 202 0z"/>
<glyph unicode="&#68;" d="M174 334c-21-21-33-49-33-79 0-30 12-59 33-80 19-21 46-33 74-35l0-45-40 0c-6 0-11-4-11-10 0-6 5-10 11-10l40 0 0-59c0-6 4-10 10-10 6 0 10 4 10 10l0 59 41 0c5 0 10 4 10 10 0 6-5 10-10 10l-41 0 0 46c58 6 103 55 103 114 0 58-45 107-103 114l0 49 41 0c5 0 10 4 10 10 0 6-5 10-10 10l-41 0 0 55c0 6-4 10-10 10-6 0-10-4-10-10l0-55-40 0c-6 0-11-4-11-10 0-6 5-10 11-10l40 0 0-49c-28-2-55-14-74-35z m-12-79c0 52 42 94 94 94 52 0 94-42 94-94 0-52-42-95-94-95-52 0-94 43-94 95z"/>
<glyph unicode="&#69;" d="M363 178c-33 0-60-23-66-55l-32 0 0 51c81 7 144 76 144 157 0 87-71 158-158 158-87 0-157-71-157-158 0-84 65-152 148-157l0-51-43 0c-6 0-11-5-11-12 0-6 5-11 11-11l43 0 0-63c0-6 5-11 12-11 6 0 11 5 11 11l0 63 32 0c6-32 33-55 66-55 36 0 66 30 66 66 0 37-30 67-66 67z m43-67c0-23-20-43-43-43-24 0-43 20-43 43 0 24 19 44 43 44 23 0 43-20 43-44z m-20 220c0-74-61-134-135-134-74 0-134 60-134 134 0 74 60 135 134 135 74 0 135-61 135-135z"/>
<glyph unicode="&#70;" d="M473 154c-13 0-24-8-29-19l-47 0-110 110 95 0c5-11 16-19 29-19 18 0 32 14 32 32 0 17-14 32-32 32-13 0-24-8-29-19l-95 0 110 110 47 0c5-11 16-19 29-19 17 0 31 14 31 32 0 17-14 31-31 31-13 0-24-8-29-19l-21 0 65 66c5 5 5 13 0 18-5 5-13 5-18 0l-84-84-260 0-84 84c-5 5-13 5-18 0-5-5-5-13 0-18l65-66-21 0c-5 11-16 19-29 19-17 0-32-14-32-31 0-18 15-32 32-32 13 0 24 8 29 19l47 0 110-110-95 0c-5 11-17 19-30 19-17 0-31-15-31-32 0-18 14-32 31-32 13 0 25 8 30 19l95 0-110-110-47 0c-5 11-16 19-29 19-17 0-32-14-32-32 0-17 15-32 32-32 13 0 24 8 29 19l21 0-65-65c-5-5-5-13 0-18 3-2 6-4 9-4 4 0 7 2 9 4l84 83 260 0 84-83c2-2 5-4 9-4 3 0 6 2 9 4 5 5 5 13 0 18l-65 65 21 0c5-11 16-19 29-19 17 0 31 15 31 32 0 18-14 32-31 32z m0-48c-9 0-17 7-17 16 0 9 8 17 17 17 9 0 16-8 16-17 0-9-7-16-16-16z m-112 29l-210 0 105 105z m-105 141l-105 105 210 0z m217 134c9 0 16-7 16-16 0-10-7-17-16-17-9 0-17 7-17 17 0 9 8 16 17 16z m-418-16c0-10-7-17-16-17-9 0-16 7-16 17 0 9 7 16 16 16 9 0 16-7 16-16z m0-272c0-9-7-16-16-16-9 0-16 7-16 16 0 9 7 17 16 17 9 0 16-8 16-17z"/>
<glyph unicode="&#71;" d="M396 351c0 85-70 155-155 155-86 0-156-70-156-155 0-80 62-147 141-155l0-72-58 0c-6 0-12-5-12-12 0-6 6-12 12-12l58 0 0-77c0-7 5-12 12-12 6 0 12 5 12 12l0 77 57 0c7 0 12 6 12 12 0 7-5 12-12 12l-57 0 0 72c82 4 146 72 146 155z m-24 0c0-73-59-132-131-132-73 0-132 59-132 132 0 72 59 131 132 131 72 0 131-59 131-131z"/>
<glyph unicode="&#72;" d="M156 108c0-54 45-99 100-99 55 0 100 45 100 99 0 50-38 93-88 99l0 38 33 0c6 0 10 5 10 11 0 6-4 11-10 11l-33 0 0 38c50 6 88 49 88 99 0 54-45 99-100 99-55 0-100-45-100-99 0-52 40-95 91-99l0-38-32 0c-6 0-11-5-11-11 0-6 5-11 11-11l32 0 0-38c-51-4-91-47-91-99z m100-78c-43 0-78 35-78 78 0 44 35 79 78 79 43 0 78-35 78-79 0-43-35-78-78-78z m0 452c43 0 78-35 78-78 0-44-35-79-78-79-43 0-78 35-78 79 0 43 35 78 78 78z"/>
<glyph unicode="&#73;" d="M162 108c37 0 73 14 100 40 26 26 42 59 44 95l36 0c3-36 18-69 44-95 27-26 63-40 101-40 5 0 10 5 10 10 0 6-5 11-10 11-33 0-63 12-86 34-22 21-36 49-38 80l124 0c5 0 10 4 10 10 0 6-5 10-10 10l-124 0c2 31 16 59 38 80 23 22 53 34 86 34 5 0 10 5 10 11 0 5-5 10-10 10-38 0-74-14-101-41-26-25-41-58-44-94l-36 0c-2 36-18 69-44 94-27 27-63 41-100 41-80 0-145-65-145-145 0-80 65-145 145-145z m-11 269l0-248c-30 3-58 16-79 38-22 23-35 54-35 86 0 32 13 63 35 86 21 22 49 35 79 38z m21-114l0 114c29-3 57-15 77-36 21-21 34-48 36-78l-113 0z m0-134l0 114 113 0c-2-30-15-57-36-78-20-21-48-33-77-36z"/>
<glyph unicode="&#74;" d="M117 285c-4 0-8-2-10-6-2-3-2-7 0-11l140-252c2-4 6-6 10-6 4 0 8 2 10 6l141 252c2 4 2 8 0 11-2 4-6 6-10 6l-128 0 0 46 53 0c6 0 11 5 11 11 0 7-5 12-11 12l-53 0 0 102 50-68c3-5 11-6 15-2 3 2 4 4 5 7 0 3 0 6-2 9l-72 97c-2 3-6 5-9 5-4 0-7-2-10-5l-70-97c-4-5-3-13 2-16 5-4 13-3 16 2l52 72 0-106-53 0c-6 0-11-5-11-12 0-6 5-11 11-11l53 0 0-46z m19-23l243 0-122-218z"/>
<glyph unicode="&#75;" d="M463 68c-2 0-4-1-6-1-34-15-71-22-109-22-92 0-178 44-230 119l147 149c6 6 6 15 0 20l-158 159c-2 3-6 4-10 4 0 0-1 0-2 0-4 0-8-3-10-6-31-50-47-106-47-165 0-59 17-116 48-166 1 0 1-1 1-1 58-89 155-143 261-143 42 0 82 9 120 25 4 1 7 4 8 8 2 3 2 7 0 11-2 5-7 9-13 9z m-229 255l-132-133c-23 41-35 88-35 135 0 47 11 93 33 133z"/>
<glyph unicode="&#76;" d="M492 432l-465 0c-7 0-13-6-13-13l0-93c0-135 111-245 247-245 134 0 244 110 244 245l0 93c0 7-5 13-13 13z m-247-325c-115 8-204 104-206 219l0 81 80 0z m235 300l0-81c0-114-88-209-201-219l126 300z m-218-277l-116 277 232 0z"/>
<glyph unicode="&#77;" d="M497 491l-109 0c-6 0-12-5-12-12 0-6 6-11 12-11l36 0-77-184-72 171c-1 1-2 3-4 4 0 1-1 2-3 2l-1 1-3 0c-1 0-2 0-4-1l-1 0c-2-1-4-2-5-5-1 0-2-1-2-2l-78-187-84 201 36 0c6 0 11 5 11 11 0 7-5 12-11 12l-109 0c-7 0-12-5-12-12 0-6 5-11 12-11l46 0 182-434c1-2 2-4 4-5 1-1 2-2 3-2l1-1 4 0c0 0 2 0 3 1l1 0c3 1 5 3 6 5 0 0 1 1 1 2l182 434 47 0c6 0 12 5 12 11 0 7-6 12-12 12z m-163-239l-77-182-70 166 77 182z"/>
<glyph unicode="&#78;" d="M92 462l145 0 0-424c0-7 5-13 12-13 6 0 13 6 13 13l0 424 145 0c7 0 12 5 12 12 0 7-5 13-12 13l-315 0c-7 0-13-6-13-13 0-7 5-12 13-12z"/>
<glyph unicode="&#79;" d="M177 13l118 0c5 0 9 3 11 8l116 465 0 0 0 0c1 1 1 3 1 4l-1 1c0 1 0 1 0 2 0 0 0 0-1 0 0 1 0 1 0 1-1 1-1 2-2 3l-1 0c-1 1-2 2-3 2l-2 0c0 0-1 0-1 0l-346 0c0 0 0 0 0 0-1 0-2 0-3 0-1 0-1-1-1-1l-1 0c-1 0-1-1-2-1 0-1 0-1-1-1 0-1-1-2-2-3 0-1 0-1 0-1 0-1-1-2-1-3 0 0 0 0 0-1l1-1c0 0 0-1 0-1l110-465c2-5 6-8 11-8z m48 22l-39 0-99 416 138-144z m22 0l0 272 144 145-105-417z m-11 292l-144 150 293 0z m-173 169z"/>
<glyph unicode="&#80;" d="M391 366c-64 0-116-52-116-115 0-27 10-52 26-73l-136-136c-2-2-4-6-4-9 0-4 2-7 4-10 3-3 6-4 10-4 4 0 7 1 10 4l136 136c20-15 45-24 70-24 63 0 115 52 115 116 0 63-52 115-115 115z m0-203c-49 0-88 39-88 88 0 48 39 88 88 88 48 0 88-40 88-88 0-49-40-88-88-88z m-150 95c0 26-9 52-25 73l135 135c6 6 6 15 0 20-5 5-14 5-19 0l-136-136c-20 15-45 24-70 24-64 0-115-52-115-116 0-64 51-115 115-115 64 0 115 51 115 115z m-115-88c-48 0-88 40-88 88 0 48 40 88 88 88 48 0 88-40 88-88 0-48-40-88-88-88z"/>
<glyph unicode="&#81;" d="M152 245c45 0 82 37 82 82 0 44-36 81-80 82 28 17 62 26 96 26 87 0 158-55 158-122 0-7 6-13 12-13 7 0 13 6 13 13 0 81-82 147-183 147-71 0-136-34-166-87-9-13-14-29-14-46 0-45 37-82 82-82z m0 24c-32 0-59 26-59 58 0 32 27 59 59 59 32 0 58-27 58-59 0-32-26-58-58-58z m200 1c-45 0-82-37-82-82 0-44 36-81 80-82-28-16-61-25-96-25-87 0-158 54-158 121 0 7-5 13-12 13-7 0-13-6-13-13 0-81 82-147 183-147 71 0 137 34 166 87 9 13 14 29 14 46 0 45-36 82-82 82z m0-24c33 0 59-26 59-58 0-32-26-58-59-58-32 0-58 26-58 58 0 32 26 58 58 58z"/>
<glyph unicode="&#82;" d="M279 324l14 80 7 37c2 15 7 25 12 30 5 5 13 7 24 7 6 0 12 5 14 12l0 0c1 4 0 8-3 10-2 3-6 5-9 5-19 0-33-5-43-15-11-10-18-25-22-46l-20-119c-50-4-89-46-89-96 0-8 7-15 14-15 8 0 14 7 14 15 0 33 24 61 55 67l-10-59 0-1 0 0-22-123-7-38c-2-15-7-25-12-30-5-5-13-7-24-7-6 0-12-5-14-12l0 0c0-4 1-8 3-10 2-3 6-5 10-5 18 0 32 5 43 15 10 10 17 25 21 46l4 22 3 17 29 168 0 1 0 0 3 17c33-6 57-35 57-68 0-8 6-15 14-15 8 0 14 7 14 15 0 47-34 87-80 95z"/>
<glyph unicode="&#83;" d="M417 332l-4 4-141-219 0 203-6-1c-5 0-8 0-14 0l-5 1 0-204-141 220-5-4c-3-3-7-5-12-8l-5-2 164-256c2-4 6-6 11-6 2 0 5 0 7 2 1 0 1 1 2 1 1 1 2 2 3 3l163 256-5 2c-4 2-8 5-12 8z m-307 53c-5 22-24 37-45 37-4 0-7 0-10-1-12-2-23-10-29-20-7-10-10-23-7-35 5-21 24-37 46-37l0 0c3 0 6 1 9 1 25 6 41 30 36 55z m149-56c3 0 6 1 10 1 25 6 41 30 35 55-4 22-23 37-45 37-3 0-7 0-10-1-12-2-23-10-29-20-7-10-9-23-7-35 5-21 24-37 46-37z m195 93c-4 0-7 0-10-1-12-2-23-10-30-20-6-10-9-23-6-35 5-21 24-37 45-37l0 0c4 0 7 1 10 1 25 6 41 30 36 55-5 22-24 37-45 37z"/>
<glyph unicode="&#84;" d="M27 212c0-6 5-10 11-10l127 0 82-146c1-4 5-6 9-6 4 0 8 2 9 6l82 146 127 0c6 0 11 4 11 10 0 6-5 11-11 11l-115 0 125 224c1 3 1 7-1 10-2 4-5 6-9 6l-436 0c-4 0-7-2-9-6-2-3-2-7-1-10l125-224-115 0c-6 0-11-5-11-11z m295-10l-66-119-66 119z m-144 21l-122 218 400 0-122-218z"/>
<glyph unicode="&#85;" d="M40 60l434 0c6 1 11 5 11 11 0 3-1 5-2 7l-216 387c-2 4-6 6-10 6-4 0-7-2-9-6l-217-389c-2-3-2-7 0-10 2-3 6-6 9-6z m19 22l198 356 199-356z"/>
<glyph unicode="&#86;" d="M460 67l-100 0 0 377 100 0c7 0 13 6 13 13 0 7-6 13-13 13l-406 0c-7 0-12-6-12-13 0-7 5-13 12-13l101 0 0-377-101 0c-7 0-12-5-12-13 0-7 5-12 12-12l406 0c7 0 13 5 13 12 0 8-6 13-13 13z m-126 0l-154 0 0 377 154 0z"/>
<glyph unicode="&#87;" d="M25 149c0-70 57-127 127-127 48 0 91 26 113 69 2 1 4 3 5 5l204 356c0 0 0 1 0 1l0 0c1 1 1 2 1 3 0 0 0 1 0 2 0 1 0 2 0 2 0 1 0 2-1 2 0 1 0 2 0 2l-1 1c-1 1-1 2-2 2 0 0-1 1-1 1l-1 1c-1 0-2 1-1 1-1 0-2 0-3 0-1 1-2 1-2 1-1 0-2 0-3-1-1 0-2 0-2 0l-1-1-357-204 0 0c-46-21-75-66-75-116z m144 126l259 149-149-262c-6 59-52 105-110 113z m-119-126c0 56 46 102 102 102 56 0 102-46 102-102 0-56-46-102-102-102-56 0-102 46-102 102z"/>
<glyph unicode="&#88;" d="M256 487c-126 0-229-103-229-229 0-126 103-229 229-229 126 0 229 103 229 229 0 126-103 229-229 229z m0-434c-113 0-204 92-204 205 0 113 91 204 204 204 113 0 204-91 204-204 0-113-91-205-204-205z m2 259c-4 0-8-1-12-1-14-3-26-12-34-24-8-12-10-26-7-40 5-25 27-43 53-43 3 0 7 0 11 1 14 3 26 11 34 23 8 13 11 27 8 41-6 25-28 43-53 43z"/>
<glyph unicode="&#89;" d="M185 133c-15-11-35-17-57-17-40 0-74 24-87 34-4 3-11 3-15-1l-1-1c-1-2-2-5-2-8 0-3 2-6 4-8 15-12 54-39 101-39 26 0 52 8 71 22 20 14 31 34 31 56 0 21-11 39-31 53-16 11-38 19-69 25l-1 0-1 0c-24 4-43 11-55 19-13 9-19 19-19 31 0 13 7 25 20 34 14 11 33 16 53 16 29 0 52-15 73-28 5-3 12-1 15 3 1 3 2 6 1 9 0 3-2 6-4 7-22 14-49 32-85 32-25 0-48-7-66-20-19-14-29-33-30-53 0-20 10-37 29-49 16-11 37-18 64-23l2-1c26-5 47-12 61-21 14-10 20-20 20-34 0-14-7-28-22-38z m289-18c20 14 31 34 32 56 0 21-11 39-31 53-17 11-39 19-70 25l-1 0 0 0c-25 4-43 11-56 19-13 9-19 19-19 31 0 8 3 15 8 22l90 0c19 0 27 10 28 19 1 11-7 24-28 29-1 1-2 1-3 1-7 1-14 2-22 2-24 0-48-7-66-20-4-3-7-6-10-10l-63 0c-1 0-2 0-3 0-5-1-10-2-14-5-1 0-2 0-2-1l0 27c0 5-5 11-11 11-6 0-11-5-11-11l0-56c0-3-1-7-1-10 0-16 9-31 23-39l2-1c11-6 25-6 37-1 13 5 22 15 26 27 4-13 13-24 27-33 15-11 37-18 63-23l2-1c27-5 47-12 61-21 14-10 21-20 21-34 0-14-8-28-22-38-15-11-36-17-58-17-39 0-73 24-86 34-5 3-12 3-16-1l0-1c-2-2-3-5-3-8 1-3 2-6 5-8 14-12 53-39 100-39 27 0 52 8 71 22z m-184 182c0-8-5-16-13-20-7-4-17-4-24 1-6 4-10 12-10 19 0 8 4 16 11 20 3 2 8 4 12 4 5 0 9-2 13-4 6-4 11-12 11-20z m112 52c14 0 20-1 26-3 2-1 3-2 4-3-1 0-3-1-5-1l-61 0c11 5 23 7 35 7z m-93-36c-1 3-3 5-4 8l6 0c-1-3-2-6-2-8z"/>
<glyph unicode="&#90;" d="M407 474c-4 1-7 1-11 1-45 0-81-47-90-117l-13-106c-8 15-17 29-29 40-22 23-51 38-83 43l124 127c1 1 2 2 3 4 1 3 1 5 1 6 0 8-6 14-14 14l-215 0c-7 0-13-6-13-14 0-7 6-13 13-13l184 0-120-124c-2-2-4-6-4-9 0-4 2-7 4-10l1 0c3-4 7-6 11-6 34 0 65-13 89-36 24-25 37-56 37-90 0-34-13-66-37-90-24-24-56-37-90-37-33 0-65 13-89 37-5 5-14 5-19 0-2-3-4-6-4-10 0-3 2-6 4-9 28-29 67-45 108-45l1 0c39 0 79 17 108 45 2 2 4 5 6 7l-7-57c-1-5 0-9 3-13 2-4 5-6 9-7 1 0 2 0 2 0 10 0 12 12 12 16l19 145 0 2c0 0 0 1 0 2l24 187c7 54 35 92 67 92 1 0 3 0 4 0 14-2 26-11 35-26 10-15 13-34 11-51-6-46-42-68-71-78-3-1-11-5-12-16-1-9 3-16 11-19 63-21 64-64 62-82-6-48-44-65-77-65-2 0-4 0-6 0-7 0-12-6-13-14-1-8 3-14 11-15 3 0 6 0 9 0 52 0 91 36 99 91 4 27-2 51-17 72-13 16-28 26-41 32 20 10 60 36 67 90l0 1c7 54-19 97-64 105z"/>
<glyph unicode="&#48;" d="M428 465c-12 13-28 20-47 20-47 0-84-44-93-110l-20-143c-6 11-14 20-24 28-19 16-44 26-72 30l108 90c1 1 2 2 3 3 1 3 1 4 1 6 0 6-6 10-12 10l-97 0 105 88c1 1 2 2 3 4 1 2 1 4 1 5 0 6-6 11-12 11l-191 0c-7 0-13-5-13-11 0-6 6-11 13-11l161 0-103-86-58 0c-7 0-13-4-13-10 0-6 6-11 13-11l161 0-104-87c-3-2-4-5-4-8 0-3 1-6 4-8l0 0c3-3 6-4 10-4 30 0 58-10 79-27 21-17 33-40 33-63 0-1 0-13-1-20-32-4-106-17-137-59-13-18-17-38-12-60 4-21 17-29 28-32 5-2 10-3 16-3 30 0 64 19 78 32 31 29 44 71 49 102 11 1 21 2 30 3 11 1 21 2 33 3l5 1c0 0 1 0 1 0 49 7 80 38 86 86l0 0c3 20 3 65-51 83 17 9 52 35 58 84l0 1c4 25-2 48-15 63z m-11-64c-4-33-25-58-61-74-6-2-9-7-11-14-1-8 3-14 11-15 23-4 60-18 54-63l0-1c-5-38-32-61-74-64-11-1-19-2-28-3-8-1-15-2-25-3 1 0 1 1 1 1l28 209c7 49 33 83 66 83 12 0 22-5 29-13 9-10 12-25 10-43z m-263-371c-3 0-7 1-9 1-7 3-11 8-13 16-3 16-1 29 8 41 21 28 74 44 117 50-6-35-20-63-40-82-14-12-42-26-63-26z"/>
<glyph unicode="&#49;" d="M496 273l-97 0c20 18 32 43 32 71 0 51-42 93-93 93-33 0-63-17-79-45-17 28-47 45-80 45-51 0-93-42-93-93 0-28 12-53 32-71l-103 0c-6 0-11-5-11-11 0-6 5-12 11-12l103 0c-20-17-32-43-32-70 0-51 42-93 93-93 33 0 63 17 80 45 16-28 46-45 79-45 51 0 93 42 93 93 0 27-12 53-32 70l97 0c7 0 12 6 12 12 0 6-5 11-12 11z m-235 78c1 0 2 0 2 0l0 0c0 1 1 1 2 1 1 1 1 2 2 2 0 1 1 1 1 1 1 2 1 3 1 3l1 2c7 31 35 54 68 54 39 0 70-32 70-70 0-39-31-71-70-71l-159 0c-39 0-70 32-70 71 0 38 31 70 70 70 33 0 61-23 68-55 0 0 1 0 1-1 0-1 1-2 1-3 0 0 1 0 1-1 1 0 1-1 2-2 1 0 1 0 2 0 0-1 1-1 2-1 1 0 1 0 2 0 0 0 0 0 1 0l0 0c1 0 1 0 1 0 1 0 1 0 1 0z m6-181c0 0-1 1-2 2-1 0-1 0-2 0 0 1-1 1-2 1 0 0 0 0 0 0 0 0 0 0 0 0l-1 0c0 0 0 0 0 0 0 0 0 0-1 0 0 0 0 0 0 0 0 0 0 0 0 0l-1 0c0 0-1 0-1 0 0 0-1 0-1 0-1 0-2 0-2 0 0-1-1-1-2-1-1-1-1-2-2-2 0 0 0 0 0 0 0 0 0 0 0 0 0-1 0-1-1-1-1-2-1-3-1-3l-1-2c-7-32-35-54-68-54-39 0-70 32-70 70 0 39 31 70 70 70l159 0c39 0 70-31 70-70 0-38-31-70-70-70-33 0-61 22-68 54 0 1 0 1-1 1 0 2 0 3-1 4 0 0-1 0-1 1z"/>
<glyph unicode="&#50;" d="M200 373c-69 0-125-56-125-125 0-33 13-64 36-87 21-23 50-36 81-38l0-36-31 0c-6 0-11-5-11-11 0-6 5-11 11-11l31 0 0-47c0-6 5-11 11-11 6 0 11 5 11 11l0 47 31 0c7 0 12 5 12 11 0 6-5 11-12 11l-31 0 0 37c63 7 111 61 111 124 0 29-10 57-29 79l58 58-8-54c-1-7 3-12 9-13 6-1 12 3 13 9l11 77c8-5 17-7 27-7 29 0 53 24 53 54 0 29-24 53-53 53-30 0-54-24-54-53 0-9 2-17 5-24l-76-13c-7-1-11-6-10-12 1-6 6-10 11-10 1 0 1 0 2 0l55 9-58-58c-23 19-51 30-81 30z m206 109c17 0 31-14 31-31 0-18-14-32-31-32-18 0-32 14-32 32 0 17 14 31 32 31z m-206-131c57 0 103-46 103-103 0-57-46-103-103-103-57 0-103 46-103 103 0 57 46 103 103 103z"/>
<glyph unicode="&#51;" d="M485 492l-161-26c-4-1-7-3-9-6-2-3-3-6-3-10 2-7 9-12 16-11l121 19-118-118-2 2c-34 29-77 45-122 45-103 0-188-84-188-187 0-104 85-188 188-188 103 0 188 84 188 188 0 43-16 85-43 119l-2 2 117 117-18-120c-1-4 0-7 2-10 3-3 6-5 9-6 8-1 15 4 16 12l25 162c0 4-1 9-4 12-3 3-8 4-12 4z m-116-292c0-89-73-162-162-162-89 0-162 73-162 162 0 89 73 162 162 162 89 0 162-73 162-162z"/>
<glyph unicode="&#52;" d="M429 493c-36 0-66-30-66-66 0-11 3-22 8-31l-98-16c-3 0-6-2-8-5-2-3-3-6-3-9 2-7 8-12 15-11l72 12-76-76c-28 24-64 38-101 38-85 0-155-70-155-155 0-86 70-156 155-156 85 0 155 70 155 156 0 36-13 71-36 99l75 75-11-71c0-4 1-7 3-10 2-3 5-4 8-5 7-1 14 4 15 11l14 97c11-6 22-9 34-9 36 0 66 29 66 66 0 36-30 66-66 66z m-257-449c-71 0-130 58-130 130 0 71 59 129 130 129 71 0 130-58 130-129 0-72-59-130-130-130z m257 342c-22 0-41 18-41 41 0 22 19 40 41 40 22 0 41-18 41-40 0-23-19-41-41-41z"/>
<glyph unicode="&#53;" d="M175 244c-39 0-70-32-70-71 0-38 31-70 70-70 39 0 71 32 71 70 0 39-32 71-71 71z m46-71c0-25-20-46-46-46-25 0-46 21-46 46 0 26 21 47 46 47 26 0 46-21 46-47z m180 109l19 121c0 4-1 8-4 11-3 2-7 4-10 3l-120-19c-4-1-6-3-8-5-2-3-3-6-2-9 1-7 7-11 14-10l83 13-87-88c-31 27-70 42-111 42-44 0-86-17-118-49-5-4-5-12 0-17 5-4 13-4 17 0 27 27 63 42 101 42 79 0 143-65 143-144 0-38-15-74-42-101-4-5-4-12 0-17 3-2 6-4 9-4 3 0 6 2 9 4 31 32 49 74 49 118 0 40-14 78-40 109l87 87-13-83c-1-7 4-13 10-14 7-1 13 4 14 10z"/>
<glyph unicode="&#54;" d="M284 62c-7 0-12-5-12-12 0-7 5-12 12-12 60 0 109 61 109 135 0 75-49 136-109 136-34 0-65-20-85-51l0 134 32 0c5-27 30-47 58-47 33 0 60 26 60 59 0 33-27 60-60 60-28 0-53-20-58-48l-32 0 0 46c0 7-6 12-12 12-7 0-12-5-12-12l0-46-40 0c-7 0-12-5-12-12 0-6 5-12 12-12l40 0 0-342c0-7 5-12 12-12 6 0 12 5 12 12l0 100c0 3 0 18 0 23 0 62 38 112 85 112 47 0 85-50 85-112 0-61-38-111-85-111z m-31 342c0 20 16 36 36 36 20 0 36-16 36-36 0-19-16-36-36-36-20 0-36 17-36 36z"/>
<glyph unicode="&#55;" d="M273 321c-37 0-71-21-94-57l0 149 43 0c7 0 13 6 13 14 0 7-6 13-13 13l-43 0 0 50c0 8-6 14-13 14-8 0-14-6-14-14l0-50-44 0c-7 0-13-6-13-13 0-8 6-14 13-14l44 0 0-378c0-7 6-13 14-13 7 0 13 6 13 13l0 110c0 3 0 20 0 26 0 68 42 123 94 123 52 0 95-55 95-123 0-68-43-123-95-123-7 0-13-6-13-13 0-7 6-13 13-13 67 0 121 67 121 149 0 83-54 150-121 150z"/>
<glyph unicode="&#56;" d="M434 104c-2 7-8 11-15 10-7-2-12-8-10-15 1-6 1-11 0-16-5-22-26-36-48-32-41 9-48 77 18 195 9 16 17 32 25 49 23 49 22 100-3 138-22 35-60 55-105 56-44 0-83-14-108-39-22-22-34-53-34-88 0 0 1-25 11-50-5 1-10 2-15 2-57 0-103-46-103-103 0-57 46-104 103-104 57 0 103 47 103 104 0 36-19 69-48 87-1 1-2 2-2 3-19 19-23 51-23 62 0 28 8 51 26 69 21 20 53 32 90 31 36 0 66-16 84-44 19-31 20-72 1-114-8-16-16-31-24-46-25-47-60-111-54-174 3-28 24-53 53-59 5-1 9-1 13-1 31 0 59 22 65 53 2 8 2 17 0 26z m-207 107c0-43-34-78-77-78-43 0-78 35-78 78 0 42 35 77 78 77 43 0 77-35 77-77z"/>
<glyph unicode="&#57;" d="M363 71c0-35 29-64 64-64 35 0 63 29 63 64 0 35-28 63-63 63-4 0-8 0-12-1l-147 349c-1 2-2 4-4 5-1 1-2 2-3 2l-1 1-4 0c-1 0-2 0-4-1l-1 0c-2-1-5-3-6-5-1-1-1-2-1-3l-147-348c-4 1-9 1-13 1-35 0-63-28-63-63 0-35 28-64 63-64 35 0 64 29 64 64 0 21-10 40-27 52l135 321 135-321c-17-12-28-31-28-52z m25 0c0 21 17 38 39 38 21 0 38-17 38-38 0-22-17-39-38-39-22 0-39 17-39 39z m-304 38c22 0 39-17 39-38 0-22-17-39-39-39-21 0-39 17-39 39 0 21 18 38 39 38z"/>
<glyph unicode="&#33;" d="M256 487c-126 0-229-103-229-229 0-126 103-229 229-229 126 0 229 103 229 229 0 126-103 229-229 229z m0-434c-113 0-204 92-204 205 0 113 91 204 204 204 113 0 204-91 204-204 0-113-91-205-204-205z m93 213l-64 0 45 45c3 2 4 5 4 8 0 4-1 7-4 9-4 4-12 4-16 0l-45-45 0 63c0 7-5 12-12 12-6 0-11-5-11-12l0-63-45 45c-5 4-13 4-17 0-2-2-3-5-3-8 0-4 1-7 3-9l45-45-64 0c-6 0-11-5-11-11 0-7 5-12 11-12l64 0-45-45c-2-2-3-5-3-8 0-4 1-6 3-9 4-4 12-4 17 0l45 45 0-63c0-6 5-12 11-12 7 0 12 6 12 12l0 63 45-45c4-4 12-4 16 0 3 3 4 5 4 9 0 3-1 6-4 8l-45 45 64 0c7 0 12 5 12 12 0 6-5 11-12 11z"/>
<glyph unicode="&#34;" d="M501 336c0 0-1 1-1 1l-1 1c0 1-1 1-1 1 0 0-1 1-2 1 0 0-1 1-1 1l-1 0-129 21-21 129c0 0-1 1-1 1 0 0 0 0 0 0 0 1 0 1 0 2-1 1-1 1-2 2l0 1c-1 0-1 0-1 1-1 0-2 0-2 1-1 0-1 0-2 1-1 0-2 0-2 0-1 0-1 0-2 0l0 0-1 0c-1 0-2 0-1 0-1-1-2-1-3-1 0 0-1-1-1-1l-1-1-276-276c-1-1-2-2-2-3-41-49-38-122 7-166 23-24 54-37 87-37 29 0 57 11 80 29 0 1 1 1 2 2l276 276c1 1 1 1 1 1 0 0 0 0 0 0 0 1 1 1 1 2 1 1 1 1 1 2 0 0 0 1 0 1 0 1 0 1 0 2 0 0 0 1 0 2 0 0 0 1 0 2 0 0-1 1-1 2z m-272-110c-24 24-55 37-88 37-7 0-14-1-21-2l205 204 19-114c1-5 4-9 9-10l115-18-205-205c1 7 2 14 2 21 0 33-13 64-36 87z m13-87c0-27-10-52-29-71-19-19-45-30-72-30-27 0-52 11-71 30-39 39-39 103 0 142 19 19 44 30 71 30 27 0 53-11 72-30 19-19 29-44 29-71z"/>
<glyph unicode="&#35;" d="M484 87l-329 0c-6 0-11-5-11-11 0-6 5-11 11-11l329 0c6 0 11 5 11 11 0 6-5 11-11 11z m-478 198c0-47 36-87 82-93l0-47-35 0c-6 0-11-5-11-11 0-6 5-11 11-11l35 0 0-47c0-6 5-11 12-11 6 0 11 5 11 11l0 47 130 0c6 0 11 5 11 11l0 1c0 1 0 3-1 4-3 9-5 19-5 29 0 41 33 75 74 75 42 0 75-34 75-75 0-10-2-20-6-30-1-1-1-2-1-2 0-1 0-1 0-2l0 0c0-1 0-1 0-2 0 0 0-1 1-2 0-1 0-2 1-2 0-1 0-1 1-2 1-1 1-1 2-1 0-1 1-1 2-1 0-1 1-1 2-1 0 0 1 0 2 0l85 0c6 0 11 5 11 11 0 6-5 11-11 11l-70 0c2 7 3 15 3 23 0 53-43 97-97 97-53 0-96-44-96-97 0-8 1-16 2-23l-115 0 0 47c46 6 82 46 82 93 0 34-19 66-50 82 31 16 50 48 50 82 0 6-5 11-11 11-6 0-11-5-11-11 0-39-32-71-71-71-40 0-72 32-72 71 0 6-5 11-11 11-6 0-11-5-11-11 0-34 20-66 50-82-30-16-50-48-50-82z m22 0c0 39 32 71 72 71 39 0 71-32 71-71 0-40-32-71-71-71-40 0-72 31-72 71z"/>
<glyph unicode="&#36;" d="M111 418c0-6 5-11 10-11l90 0c6 0 10 5 10 11l0 0c0 2 0 3 0 4-3 5-4 10-4 16 0 22 18 40 40 40 22 0 40-18 40-40 0-6-1-11-3-16l0-1c-1 0-1-1-1-2 0 0 0 0 0-1l0 0c0-1 0-2 0-2 0 0 0-1 1-2 0-1 0-2 1-2 0-1 0-1 1-2 1-1 1-1 2-1 0-1 1-1 1-1l1 0 0 0c1-1 2-1 2-1l2 0 89 0c6 0 11 5 11 11 0 6-5 10-11 10l-75 0c0 4 0 7 0 10 0 34-27 61-61 61-33 0-61-27-61-61 0-3 0-6 1-10l-76 0c-5 0-10-4-10-10z m187-5c0 0 0 0 0 0l0 0z m-177-39l76 0c-1-3-1-6-1-9 0-21 10-40 27-51-34-14-56-46-56-84 0-45 35-84 80-89l0-47-37 0c-6 0-11-5-11-11 0-6 5-11 11-11l37 0 0-44c0-6 5-10 11-10 5 0 10 4 10 10l0 44 37 0c6 0 11 5 11 11 0 6-5 11-11 11l-37 0 0 47c45 5 80 44 80 89 0 38-22 70-56 84 16 11 26 30 26 51 0 3 0 6 0 9l75 0c6 0 11 5 11 11 0 6-5 10-11 10l-89 0c-6 0-11-4-11-10l0-1c0-1 0-3 1-4 2-5 3-10 3-15 0-22-18-40-40-40-22 0-40 18-40 40 0 5 2 11 4 15l0 1c0 1 0 1 0 2 0 0 1 1 1 1l0 1c0 1-1 1-1 1 0 1 0 2 0 3 0 1-1 1-1 2 0 0-1 1-1 1-1 1-2 1-2 2-1 0-1 0-2 1l0 0c0 0 0 0 0 0 0 0 0 0 0 0l0 0c0 0 0 0 0 0l0 0c-1 0-1 0-2 0 0 0-1 0-1 0l-91 0c-5 0-10-4-10-10 0-6 5-11 10-11z m67-144c0 39 31 70 69 70 38 0 69-31 69-70 0-38-31-69-69-69-38 0-69 31-69 69z"/>
<glyph unicode="&#37;" d="M193 104c0-6 5-11 11-11l43 0 0-49c0-6 4-10 10-10 6 0 11 4 11 10l0 49 43 0c6 0 10 5 10 11 0 6-4 10-10 10l-35 0c26 8 45 33 45 62 0 22-11 42-29 54 18 12 29 32 29 54 0 35-28 64-64 64-35 0-64-29-64-64 0-22 11-42 30-54-19-12-30-32-30-54 0-29 19-54 46-62l-35 0c-6 0-11-4-11-10z m64 115c24 0 43-20 43-43 0-23-19-42-41-43l-2 0c0 0-1 0-1 0-23 1-41 20-41 43 0 23 19 43 42 43z m0 107c24 0 43-19 43-42 0-24-19-43-43-43-23 0-42 19-42 43 0 23 19 42 42 42z m-238-37l157 0c0 0 1 0 2 0l7 4c1 2 1 4 1 6l0 5 0 0c0 0 0 0 0 1-4 9-7 19-7 30 0 43 35 78 78 78 43 0 78-35 78-78 0-11-2-21-6-31l-1-1c0 0 0-1 0-1l0-1c0 0 0-1 0-1l0-1c0 0 0-1 0-1 0-1 0-2 1-3 0-1 0-1 0-1l1 0c0-1 0-1 0-2l0 0 1 0c0 0 0 0 0 0 1-1 1-1 2-2 0 0 0 0 1-1l1 0 1 0c0 0 0 0 0 0l1 0c0 0 1 0 2 0l157 0c6 0 11 4 11 10 0 6-5 11-11 11l-142 0c2 8 3 17 3 25 0 55-45 99-100 99-55 0-99-44-99-99 0-8 1-17 3-25l-142 0c-6 0-11-5-11-11 0-6 5-10 11-10z"/>
<glyph unicode="&#38;" d="M442 462l-372 0c-6 0-11-5-11-12l0-371c0-6 5-11 11-11l372 0c6 0 11 5 11 11l0 371c0 7-5 12-11 12z m-360-352l0 313 156-156z m16 329l313 0-157-157z m316-349l-320 0 160 161z m-144 177l160 160 0-321z"/>
<glyph unicode="&#39;" d="M387 504c-64 0-115-51-115-114 0-26 9-52 26-72l-280-279c-5-6-5-14 0-20 3-2 6-4 10-4 4 0 7 2 10 4l279 280c20-16 45-24 70-24 63 0 114 52 114 115 0 63-51 114-114 114z m0-201c-48 0-88 39-88 87 0 48 40 87 88 87 48 0 87-39 87-87 0-48-39-87-87-87z"/>
<glyph unicode="&#40;" d="M258 480c-124 0-226-101-226-226 0-124 102-226 226-226 125 0 226 102 226 226 0 125-101 226-226 226z m202-226c0-107-83-195-189-201l0 403c106-7 189-94 189-202z m-214 202l0-403c-107 6-189 94-189 201 0 108 82 195 189 202z"/>
<glyph unicode="&#41;" d="M256 399c-38 0-69-31-69-69 0-38 31-69 69-69 38 0 69 31 69 69 0 38-31 69-69 69z m45-69c0-25-20-45-45-45-25 0-45 20-45 45 0 25 20 45 45 45 25 0 45-20 45-45z m-189-129c0-38 31-69 69-69 38 0 69 31 69 69 0 38-31 69-69 69-38 0-69-31-69-69z m69-45c-25 0-45 20-45 45 0 24 20 45 45 45 25 0 45-21 45-45 0-25-20-45-45-45z m81 45c0-38 31-69 69-69 38 0 69 31 69 69 0 38-31 69-69 69-38 0-69-31-69-69z m69 45c25 0 45-21 45-45 0-25-20-45-45-45-25 0-45 20-45 45 0 24 20 45 45 45z"/>
<glyph unicode="&#42;" d="M430 190c0 3-1 6-2 8l-160 285c-2 4-6 7-11 7-4 0-9-3-11-7l-160-286c-2-4-2-9 0-13 3-4 7-6 11-6l132 0-65-123c-4-7-1-14 5-18 2-1 4-1 6-1 5 0 9 2 11 6l58 110 0-123c0-7 6-13 13-13 7 0 13 6 13 13l0 123 59-110c2-4 6-6 11-6 2 0 4 0 6 1 6 4 8 11 5 18l-66 123 132 0c7 0 13 5 13 12z m-35 13l-276 0 138 248z"/>
<glyph unicode="&#43;" d="M450 80c-83 0-140 76-142 170l58 0c7 0 13 6 13 13 0 7-6 13-13 13l-57 0c7 87 62 156 141 156 5 0 10 5 10 10 0 6-5 11-10 11-102 0-156-78-162-177l-79 0c-6 99-60 177-161 177-6 0-11-5-11-11 0-5 5-10 11-10 78 0 133-69 141-156l-61 0c-7 0-13-6-13-13 0-7 6-13 13-13l61 0c-2-94-58-170-141-170-6 0-11-5-11-10 0-6 5-11 11-11 106 0 160 85 162 191l78 0c1-106 55-191 162-191 5 0 10 5 10 11 0 5-5 10-10 10z"/>
<glyph unicode="&#44;" d="M492 456l-137 0c-7 0-13-6-13-14 0-7 6-14 13-14l55 0 0-258-308 0 0 258 55 0c7 0 13 7 13 14 0 8-6 14-13 14l-137 0c-8 0-14-6-14-14 0-7 6-14 14-14l54 0 0-272c0-7 7-14 14-14l154 0 0-108-54 0c-8 0-14-6-14-14 0-7 6-14 14-14l137 0c7 0 13 7 13 14 0 8-6 14-13 14l-55 0 0 108 154 0c7 0 14 7 14 14l0 272 54 0c8 0 14 7 14 14 0 8-6 14-14 14z"/>
<glyph unicode="&#45;" d="M105 170c0-84 68-152 152-152 84 0 153 68 153 152 0 78-60 144-137 152l0 36 55 0c7 0 13 6 13 13 0 7-6 13-13 13l-55 0 0 21 55 0c7 0 13 6 13 13 0 7-6 13-13 13l-55 0 0 58c0 8-6 13-13 13-7 0-13-5-13-13l0-58-55 0c-7 0-12-6-12-13 0-7 5-13 12-13l55 0 0-21-55 0c-7 0-12-6-12-13 0-7 5-13 12-13l55 0 0-36c-80-5-142-71-142-152z m152-126c-70 0-127 56-127 126 0 70 57 127 127 127 70 0 127-57 127-127 0-70-57-126-127-126z"/>
<glyph unicode="&#46;" d="M69 277l99 0c7 0 12 5 12 12 0 7-5 12-12 12l-99 0c-7 0-13-5-13-12 0-7 6-12 13-12z m0-66l99 0c7 0 12 5 12 12 0 7-5 12-12 12l-99 0c-7 0-13-5-13-12 0-7 6-12 13-12z m140 66l99 0c6 0 12 5 12 12 0 7-6 12-12 12l-99 0c-7 0-13-5-13-12 0-7 6-12 13-12z m0-66l99 0c6 0 12 5 12 12 0 7-6 12-12 12l-99 0c-7 0-13-5-13-12 0-7 6-12 13-12z m139 66l99 0c7 0 12 5 12 12 0 7-5 12-12 12l-99 0c-7 0-12-5-12-12 0-7 5-12 12-12z m0-66l99 0c7 0 12 5 12 12 0 7-5 12-12 12l-99 0c-7 0-12-5-12-12 0-7 5-12 12-12z m147 158l-478 0c-7 0-12-5-12-12l0-202c0-7 5-12 12-12l478 0c7 0 12 5 12 12l0 202c0 7-5 12-12 12z m-12-202l-454 0 0 178 454 0z"/>
<glyph unicode="&#47;" d="M487 306l-138 0c-6 0-11-5-11-11 0-1 0-1 0-1 0-2 0-4 1-5 4-11 7-23 7-35 0-50-41-90-90-90-50 0-90 40-90 90 0 12 2 24 7 35 1 2 1 4 1 6 0 6-5 11-11 11 0 0 0 0 0 0l-138 0c-6 0-11-5-11-11 0-7 5-12 11-12l121 0c-3-10-4-19-4-29 0-63 51-114 114-114 62 0 113 51 113 114 0 10-1 19-4 29l122 0c6 0 11 5 11 12 0 6-5 11-11 11z m0 62l-462 0c-6 0-11-5-11-12 0-6 5-11 11-11l462 0c6 0 11 5 11 11 0 7-5 12-11 12z"/>
<glyph unicode="&#58;" d="M320 498c-26 6-50 1-65-15-16-17-23-44-16-69 5-19 26-34 48-34l1 0c20 0 36 12 42 32 1 4 1 7-1 10-1 3-4 5-7 6-6 2-13-2-15-8-3-10-10-15-20-15-11 0-22 7-24 16-5 16-1 34 10 45 9 9 23 12 41 8 56-13 75-57 84-90 18-61-3-178-44-244-36-59-83-98-116-98-2 0-4 0-6 0-19 3-32 22-39 56-6 27 3 89 11 145 10 75 15 112 8 128-8 20-27 38-47 45-15 6-29 6-42 0-18-9-29-25-31-43-3-23 7-47 27-64 5-4 13-3 17 2 2 2 3 6 3 9-1 3-2 6-5 8-12 11-20 28-18 42 1 10 7 18 18 24 6 3 14 3 22-1 14-5 28-18 33-31 5-12-3-72-9-116-9-60-18-122-11-153 12-55 38-71 59-75 3 0 7-1 10-1 51 0 106 60 137 110 40 65 69 189 47 264-12 39-34 91-102 107z"/>
<glyph unicode="&#59;" d="M447 440c-2 4-6 7-11 7l0 0-1 0c-4 0-8-2-11-5l-58-80c-4-6-2-14 3-18 6-4 14-2 18 3l36 50 0-11c0-91-70-166-161-172l0 107c0 7-6 13-12 13-7 0-13-6-13-13l0-107c-89 6-158 78-161 168l31 0c6 0 12 6 12 13 0 7-6 12-12 12l-86 0c-7 0-12-5-12-12 0-7 5-13 12-13l30 0c2-104 83-187 186-194l0-131c0-7 6-13 13-13 6 0 12 6 12 13l0 131c105 7 186 93 186 198l0 10 36-49c2-3 6-5 10-5 3 0 5 1 7 2 3 2 5 5 5 9 1 3 0 6-2 9z"/>
<glyph unicode="&#60;" d="M502 419c0 6-5 11-11 11l-88 0c-6 0-11-5-11-11 0-7 5-12 11-12l32 0c-1-97-81-176-179-176-98 0-178 79-179 176l32 0c6 0 11 5 11 12 0 6-5 11-11 11l-88 0c-6 0-11-5-11-11 0-7 5-12 11-12l33 0c1-107 84-193 191-199l0-35-33 0c-6 0-11-5-11-11 0-7 5-12 11-12l33 0 0-67c0-7 5-12 11-12 6 0 11 5 11 12l0 67 33 0c6 0 11 5 11 12 0 6-5 11-11 11l-33 0 0 35c107 6 190 92 191 199l33 0c6 0 11 5 11 12z"/>
<glyph unicode="&#61;" d="M303 382c41 19 67 60 67 105 0 6-4 11-10 11-6 0-11-5-11-11 0-52-42-94-94-94-52 0-95 42-95 94 0 6-4 11-10 11-6 0-11-5-11-11 0-45 26-86 67-105-41-19-67-60-67-105 0-60 46-109 105-115l0-47-48 0c-7 0-12-6-12-13 0-6 5-12 12-12l48 0 0-69c0-7 5-13 12-13 7 0 12 6 12 13l0 69 48 0c7 0 12 6 12 12 0 7-5 13-12 13l-48 0 0 47c58 7 102 56 102 115 0 45-26 86-67 105z m-143-105c0 52 43 95 95 95 52 0 94-43 94-95 0-52-42-94-94-94-52 0-95 42-95 94z"/>
<glyph unicode="&#62;" d="M145 117l-44-21c-4-3-6-7-5-12 1-5 6-9 11-9 1 0 3 0 5 1 6 3 23 11 43 11 14 0 26-4 37-11 21-12 47-25 78-25 24 0 48 9 70 27 5 4 5 10 2 15-4 4-11 5-15 1-19-15-38-22-57-22-20 0-41 7-67 23-9 5-19 9-29 11l45 21c56 25 93 82 93 146 0 88-67 159-150 159-82 0-149-71-150-159 1-80 59-148 133-156z m17 293c34 0 67-14 91-39 25-26 38-61 38-98 0-75-58-137-129-137-71 0-128 62-128 137 0 76 57 137 128 137z m169-295l161 0c6 0 11 5 11 11 0 6-5 10-11 10l-150 0 0 125 132 0c6 0 10 5 10 11 0 5-4 10-10 10l-132 0 0 125 150 0c6 0 11 4 11 10 0 6-5 11-11 11l-160 0-2 0c-6-1-9-6-9-11l0-291c0-6 4-11 10-11z"/>
<glyph unicode="&#63;" d="M52 364c7-1 13 3 15 10 8 42 46 72 89 72 46 0 84-33 90-79-88-4-159-78-159-166 0-93 75-167 167-167 92 0 167 74 167 167 0 85-65 157-149 166 5 45 44 79 90 79 43 0 80-30 89-72 1-7 8-11 15-10 3 1 6 3 7 5 2 3 3 6 2 10-11 53-58 92-113 92-44 0-84-25-103-63-20 38-59 63-103 63-55 0-103-39-114-92 0-4 0-7 2-10 2-2 5-4 8-5z m60-163c0 78 64 142 142 142 79 0 142-64 142-142 0-79-63-143-142-143-78 0-142 64-142 143z"/>
<glyph unicode="&#64;" d="M472 490c0 6-5 11-11 11-73 0-143-21-203-62-61 41-131 62-203 62-7 0-12-5-12-11 0-7 5-12 12-12 65 0 128-18 183-54-86-67-137-167-140-275-32-6-55-33-55-66 0-36 30-66 66-66 37 0 66 30 66 66 0 32-23 60-54 66 3 104 53 199 137 261 83-62 133-157 136-261-31-6-54-34-54-66 0-36 30-66 66-66 37 0 66 30 66 66 0 33-23 60-54 66-4 108-54 208-140 275 54 36 118 54 183 54 6 0 11 5 11 12z m-320-407c0-23-19-42-43-42-24 0-43 19-43 42 0 24 19 43 43 43 24 0 43-19 43-43z m211 0c0 24 20 43 43 43 24 0 43-19 43-43 0-23-19-42-43-42-23 0-43 19-43 42z"/>
<glyph unicode="&#91;" d="M65 418c-4-2-7-6-7-10l0-269c0-6 5-11 12-11l376 0c6 0 11 5 11 11l0 269c0 4-2 8-7 10-4 2-9 1-12-2l-85-85-87 85c-5 4-12 4-16 0l-86-85-86 85c-4 3-9 4-13 2z m16-185l0 147 75-74c1 0 2-1 2-1 1 0 1-1 2-1 1 0 2-1 2-1 1 0 3 0 5 0 0 0 1 1 2 1 1 0 1 1 2 1 0 0 1 1 2 1l85 86 87-86c0 0 1-1 2-1 0-1 1-1 1-1 2-1 3-1 5-1l1 0c1 0 2 0 3 1 1 0 1 0 2 1 0 0 1 1 2 1l73 74 0-147-353 0z m0-83l0 60 353 0 0-60z"/>
<glyph unicode="&#93;" d="M26 128c7 0 13 5 13 12 0 121 98 219 219 219 120 0 218-98 218-219 0-7 6-12 13-12 7 0 13 5 13 12 0 135-110 244-244 244-135 0-244-109-244-244 0-7 5-12 12-12z m237 0c36 0 66 29 66 66 0 37-30 66-66 66-37 0-67-29-67-66 0-37 30-66 67-66z m-41 66c0 22 18 41 41 41 22 0 41-19 41-41 0-23-19-41-41-41-23 0-41 18-41 41z"/>
<glyph unicode="&#94;" d="M28 118c0 59 48 107 107 107 60 0 108-48 108-107 0-6 5-12 12-12 6 0 12 6 12 12 0 59 48 107 107 107 59 0 107-48 107-107 0-6 6-12 12-12 7 0 13 6 13 12 0 73-59 132-132 132-43 0-83-21-107-56l0 190 124 0c6 0 12 5 12 12 0 7-6 12-12 12l-272 0c-7 0-12-5-12-12 0-7 5-12 12-12l124 0 0-190c-25 35-65 56-108 56-72 0-131-59-131-132 0-6 5-12 12-12 7 0 12 6 12 12z"/>
<glyph unicode="&#95;" d="M443 418c0 3-1 5-2 7 0 0 0 0 0 0 0 37-30 66-66 66-26 0-49-14-60-37-11 23-34 37-59 37-27 0-50-15-61-39-10 24-34 39-60 39-37 0-66-29-66-66 0-1 0-2 0-4 0-1 0-2 0-3l0-70c0-100 77-181 176-187l0-39-39 0c-6 0-11-5-11-11 0-6 5-11 11-11l39 0 0-79c0-6 5-11 11-11 6 0 11 5 11 11l0 79 39 0c6 0 11 5 11 11 0 6-5 11-11 11l-39 0 0 39c99 5 176 87 176 187z m-352 11c2 22 21 40 44 40 23 0 42-18 44-40z m121 0c2 22 21 40 44 40 23 0 42-18 44-40z m119 0c2 22 21 40 44 40 23 0 42-18 44-40z m92-21l0-60c0-91-75-166-166-167-93 1-166 74-167 167l0 60z"/>
<glyph unicode="&#96;" d="M478 368c0 3-1 6-3 7 0 1 0 1 0 2 0 42-34 76-76 76-32 0-59-18-71-47-12 29-40 47-71 47-33 0-61-20-72-50-11 30-39 50-72 50-42 0-77-34-77-76 0-2 1-3 1-5 0-1 0-2 0-4l0-83c0-122 99-221 221-221 121 0 220 99 220 221l0 83z m-419 11c1 29 25 52 54 52 29 0 53-23 55-52z m143 0c2 29 26 52 55 52 29 0 53-23 54-52z m142 0c1 29 25 52 55 52 29 0 53-23 54-52z m113-21l0-73c0-110-89-200-199-200-111 0-200 88-201 200l0 73z"/>
<glyph unicode="&#123;" d="M101 168c0-86 70-156 155-156 86 0 156 70 156 156 0 79-62 147-141 154l0 72 58 0c6 0 12 5 12 12 0 6-6 12-12 12l-58 0 0 77c0 7-5 12-12 12-6 0-12-5-12-12l0-77-57 0c-7 0-12-6-12-12 0-7 5-12 12-12l57 0 0-71c-82-5-146-72-146-155z m24 0c0 72 59 131 131 131 73 0 132-59 132-131 0-73-59-132-132-132-72 0-131 59-131 132z m129-52c28 0 51 23 51 52 0 28-23 51-51 51-28 0-52-23-52-51 0-29 24-52 52-52z"/>
<glyph unicode="&#124;" d="M373 495c-25 0-46-14-57-35-10 21-32 35-57 35-25 0-47-15-58-37-10 22-32 37-57 37-35 0-64-28-64-63 0-2 0-3 1-4 0-1-1-2-1-4l0-66c0-95 74-173 169-179l0-37-37 0c-6 0-11-5-11-11 0-6 5-11 11-11l37 0 0-42c-12 10-27 16-42 16-35 0-64-29-64-64 0-6 5-11 11-11 6 0 11 5 11 11 0 23 19 42 42 42 23 0 42-19 42-42 0-6 5-11 11-11 5 0 10 5 10 11 0 23 19 42 42 42 23 0 42-19 42-42 0-6 5-11 11-11 6 0 11 5 11 11 0 35-29 64-64 64-15 0-30-6-42-16l0 42 37 0c6 0 11 5 11 11 0 6-5 11-11 11l-37 0 0 37c95 5 169 83 169 179l0 67c0 2-1 5-2 6 0 0 0 0 0 1 0 35-29 63-64 63z m-271-60c2 22 20 39 42 39 22 0 40-17 42-39z m115 0c2 22 20 39 42 39 22 0 40-17 42-39z m114 0c2 22 20 39 42 39 22 0 40-17 42-39z m88-20l0-57c0-87-72-159-159-159-88 0-158 70-159 159l0 57z"/>
<glyph unicode="&#125;" d="M383 485c-2 4-8 14-23 14-5 0-11-1-18-4 0 0-1 0-1 0-64-29-126-88-166-158-44-78-57-157-36-224 17-55 69-94 126-94 43 0 78 22 98 59 18 36 23 81 11 114-8 23-26 58-55 106-27 46-9 73 35 118 20 21 37 50 29 69z m-87-200c28-46 46-81 53-101 4-11 5-22 5-34 0-16-3-33-9-48-2-4-4-8-6-12-14-28-41-44-74-44-37 0-85 23-101 75-32 105 44 284 187 349 4 2 6 2 8 2-1-6-8-21-24-37-37-39-79-82-39-150z"/>
<glyph unicode="&#126;" d="M410 466c0 7-6 13-13 13-7 0-12-6-12-13 0-71-58-128-129-128-71 0-129 57-129 128 0 7-5 13-12 13-7 0-13-6-13-13 0-62 37-117 93-141-56-24-93-79-93-141 0-85 69-155 154-155 85 0 154 70 154 155 0 62-37 117-93 141 56 24 93 79 93 141z m-154-411c-71 0-129 58-129 129 0 71 58 128 129 128 71 0 129-57 129-128 0-71-58-129-129-129z"/>
<glyph unicode="&#92;" d="M481 260l-230 0-107 145c-2 3-6 5-10 5-4 0-8-2-10-5l-109-151c-3-4-3-10 0-14l109-150c2-3 6-5 10-5l0 0c4 0 8 2 10 5l107 145 230 0c7 0 12 5 12 12 0 7-5 13-12 13z m-347 116l95-129-95-129-93 129z m0-286z"/>
<glyph unicode="&#57344;" d="M419 279l21 136c0 4-1 8-4 11-3 3-7 4-11 3l-135-21c-7-2-11-8-10-15 1-7 8-12 14-11l99 16-173-173-43 42c-5 5-13 5-18 0-5-5-5-13 0-18l43-43-113-112c0 0 0 0 0 0l-10-10c-5-5-5-13 0-18 5-5 13-5 18 0l4 4 0 0 119 118 42-42c5-5 13-5 18 0 5 5 5 13 0 18l-42 42 170 171-14-94c-1-7 4-14 11-15 3 0 6 0 9 2 3 2 5 5 5 9z"/>
<glyph unicode="&#57345;" d="M33 316c-7 0-12-5-12-12l0-108c0-7 5-12 12-12 6 0 11 5 11 12l0 42 194 0-124-193-51 0c-6 0-11-5-11-11 0-7 5-12 11-12l109 0c6 0 11 5 11 12 0 6-5 11-11 11l-30 0 107 166 0-166-43 0c-6 0-12-5-12-11 0-7 6-12 12-12l109 0c6 0 11 5 11 12 0 6-5 11-11 11l-43 0 0 166 106-165-30 0c-6 0-12-6-12-12 0-6 6-12 12-12l109 0c6 0 11 6 11 12 0 6-5 12-11 12l-51 0-124 192 194 0 0-42c0-7 5-12 12-12 6 0 11 5 11 12l0 108c0 7-5 12-11 12-7 0-12-5-12-12l0-42-195 0 138 215 50 0c6 0 12 5 12 12 0 6-6 11-12 11l-108 0c-7 0-12-5-12-11 0-7 5-12 12-12l31 0-120-186 0 186 43 0c6 0 11 5 11 12 0 6-5 11-11 11l-109 0c-6 0-12-5-12-11 0-7 6-12 12-12l43 0 0-187-121 187 31 0c7 0 12 5 12 12 0 6-5 12-12 12l-108 0c-7 0-12-6-12-12 0-7 5-12 12-12l50 0 138-215-195 0 0 42c0 7-5 12-11 12z"/>
<glyph unicode="&#57346;" d="M256 483c-125 0-226-101-226-226 0-124 101-226 226-226 125 0 226 102 226 226 0 125-101 226-226 226z m201-238c-6-107-93-189-201-189-108 0-195 82-201 189z m0 24l-402 0c6 107 93 190 201 190 108 0 195-83 201-190z"/>
<glyph unicode="&#57347;" d="M101 163c0-86 69-156 155-156 86 0 155 70 155 156 0 79-61 146-140 154l0 72 57 0c7 0 12 5 12 12 0 6-5 11-12 11l-57 0 0 78c0 7-6 12-12 12-7 0-12-5-12-12l0-78-57 0c-7 0-12-5-12-11 0-7 5-12 12-12l57 0 0-72c-82-4-146-72-146-154z m155-132c-68 0-125 52-131 120l262 0c-6-68-63-120-131-120z m-131 143c6 68 63 120 131 120 68 0 125-52 131-120z"/>
<glyph unicode="&#57348;" d="M175 175c20-20 46-32 74-34l0-45-40 0c-5 0-10-4-10-10 0-6 5-10 10-10l40 0 0-58c0-6 5-11 10-11 6 0 11 5 11 11l0 58 40 0c5 0 10 4 10 10 0 6-5 10-10 10l-40 0 0 45c57 7 101 56 101 114 0 0 0 0 0 0l0 1c0 1 0 1 0 1 0 29-12 56-31 76-19 20-44 32-70 35l0 49 40 0c5 0 10 4 10 10 0 6-5 10-10 10l-40 0 0 55c0 5-5 10-11 10-5 0-10-5-10-10l0-55-40 0c-5 0-10-4-10-10 0-6 5-10 10-10l40 0 0-49c-58-4-104-52-106-111 0 0 0 0 0-1l0-1c0 0 0 0 0 0 0-30 12-58 32-80z m175 71c-4-48-44-85-93-85-48 0-88 37-93 85z m-185 21c5 46 45 81 92 81 47 0 87-35 93-81z"/>
<glyph unicode="&#57349;" d="M92 494c-2-1-4-2-4-2l-1 0-5-12 7-8 1 0c2-1 4-1 7 1l1-7c5-22 5-22 6-24 1-2 4-4 7-5 3-1 5 0 8 1l2-6c4-22 4-22 5-24 1-3 4-5 7-5 3-1 5-1 9 1 0-2 0-4 1-6 4-23 4-23 5-25 2-2 4-4 7-5 3-1 5 0 9 2l1-7c4-22 4-22 5-24 2-3 4-4 7-5 3-1 5-1 9 1l1-6c4-22 4-22 5-24 2-3 4-5 7-5 3-1 5-1 9 1l1-6c4-23 4-23 5-25 2-2 4-4 7-5 4-1 5 0 9 2l1-7c4-22 4-22 5-24 2-2 3-4 5-5-42-48-42-48-38-56 1-1 3-2 4-3-4-5-8-9-11-13-45-51-45-51-41-59 1-1 2-2 4-3-4-5-8-9-12-13-44-50-44-50-40-59 2-2 4-4 7-5 1 0 2 0 3 0 3 0 6 2 20 10l2 1c4 3 9 6 10 7 1 0 2 0 3 1 2 1 4 4 5 6 0 3 0 6-1 9-1 1-2 2-4 3l11 13c45 50 45 50 41 58-1 2-2 3-4 4 4 4 8 9 11 12l1 1c20 23 31 35 36 42l0-1c-10-32-10-32-7-36 1-3 4-5 7-6 0 0 1 0 2 0l-2-5c-10-32-10-32-7-37 2-2 4-4 7-5 0 0 1 0 2 0l-2-5c-10-32-10-32-7-37 2-2 4-4 7-5 0 0 1 0 2 0l-2-5c-10-32-10-32-7-37 2-2 4-4 7-5 1 0 2 0 3 0 3 0 5 1 13 6l1 1c2 1 4 2 5 2 0 1 1 1 2 1 5 3 6 10 3 15-1 2-3 4-6 5-1 0-1 0-2 0l2 5c9 32 9 32 6 37-1 3-3 4-6 5-1 0-1 0-2 0l2 6c9 32 9 32 6 36-1 3-3 4-6 5-1 0-1 0-2 1l2 5c9 32 9 32 7 36-2 3-4 5-7 5-1 0-1 1-2 1l2 5c2 8 4 14 5 18 0 0 0 0 0 0l1-6c5-23 5-23 6-25 1-2 4-4 6-5 4-1 6 0 9 2l1-7c5-22 5-22 6-24 1-3 4-5 6-5 4-1 6-1 9 1l1-6c5-23 5-23 6-25 1-2 4-4 6-5 4-1 6 0 9 2l2-7c4-22 4-22 5-24 1-2 4-4 7-5 3-1 5 0 8 1l2-6c4-22 4-22 5-24 1-3 4-5 7-5 5-2 6-1 15 5l1 1c2 1 4 2 4 2l2 1-2 19-1 0c-4 1-6 1-9-1-1 2-1 4-1 6-5 23-5 23-6 25-1 2-4 4-6 5-4 1-6 0-9-2l-1 6c-5 23-5 23-6 25-1 2-4 4-6 5-4 1-6 0-9-1l-1 6c-5 22-5 22-6 24-1 3-4 5-7 5-3 1-5 1-8-1l-2 6c-4 23-4 23-5 25-1 2-4 4-7 5-3 1-5 0-8-2l-2 7c-4 22-4 22-5 24-1 3-4 4-7 5-3 1-5 0-9-1l-2 11c30 34 31 36 27 43-1 2-2 3-3 4 4 4 7 9 11 13 45 50 45 50 40 58-1 2-2 3-3 4 3 4 7 7 10 11l1 2c45 50 45 50 40 58-1 2-3 4-5 5l6 8c37 46 37 46 32 53-1 3-4 4-6 5-6 2-7 0-16-5l-1-1c-2-1-4-2-4-2-1-1-1-1-2-1-2-2-4-4-5-7-1-2 0-5 1-8 0 0 0 0 0 0-5-7-11-15-16-21-36-46-36-46-32-54 1-1 2-3 3-3-2-4-5-7-8-10l-3-3c-45-51-45-51-40-59 1-1 2-2 3-3-4-5-7-9-11-13-8-9-14-16-20-22 6 19 6 20 4 23-2 3-4 5-7 6-1 0-1 0-2 0l2 5c9 32 9 32 6 37-1 2-3 4-6 5-1 0-1 0-2 0l2 5c9 32 9 32 6 37-1 2-3 4-6 5-1 0-1 0-2 0l2 5c9 32 9 32 6 37-1 2-3 4-6 5-1 0-2 0-3 0l1 5c7 31 7 31 5 35-2 2-4 4-7 5-5 1-6 0-14-5l-1-1c-2-1-3-1-4-2l-1 0-5-10 6-9c1-1 0-6 0-8-7-31-7-31-5-35 2-2 4-4 7-5 0 0 1 0 2 0l-2-5c-10-32-10-32-7-37 2-3 4-4 7-5 0 0 1 0 2 0l-2-6c-10-32-10-32-7-36 2-3 4-4 7-5 0 0 1 0 2-1l-2-5c-7-24-9-30-8-33-4 1-5 0-9-2 0 2-1 5-1 6-4 23-4 23-5 25-2 3-4 5-7 5-4 1-5 1-9-1l-1 6c-4 22-4 22-5 25-2 2-4 4-7 5-4 0-5 0-9-2l-1 6c-4 23-4 23-6 25-1 2-3 4-6 5-4 1-6 0-9-2l-1 7c-4 22-4 22-6 24-1 3-3 5-6 5-4 1-6 1-9-1l-1 6c-5 23-5 23-6 25-1 2-4 4-6 5-4 1-6 0-9-2l-2 6c-5 23-5 23-6 25-1 2-4 4-6 5-5 1-7 0-14-5z"/>
<glyph unicode="&#57350;" d="M476 55l-28 40c-4 6-12 7-18 3-5-4-7-12-3-17l9-14c-23 4-41 21-43 60l0 112c0 24 0 57 0 106l0 31c1 59-41 91-82 91-32 0-50-13-64-33 0 0-2-3-5-8-14 27-39 41-70 41-33 0-50-13-63-34l0 35c0 7-6 13-13 13-8 0-14-6-14-13l0-382c0-7 6-13 14-13 7 0 13 6 13 13l0 203c0 3 0 19 0 26 0 67 18 122 63 123 30 0 54-27 54-60 0-54 0-105 1-151l0-141c0-7 6-13 13-13 7 0 13 6 13 13l0 153c0 24 0 57 0 106l0 3c0 0 0 0 0 0 0 55 22 89 59 90 30 0 54-27 54-60 0-54 0-105 1-151l0-102c0 0 0 0 0 0 1-43 25-80 65-85l-14-10c-6-4-7-12-3-18 2-3 6-5 10-5 3 0 5 1 8 2l40 28c6 4 7 12 3 18z"/>
<glyph unicode="&#57351;" d="M33 92c0-37 30-67 67-67 36 0 66 29 67 65 26-19 58-29 90-29 33 0 64 11 91 29 1-36 30-65 66-65 37 0 67 30 67 67 0 37-30 67-67 67-4 0-8-1-13-2 8 20 13 40 13 61 0 72-49 134-118 152 15 12 23 31 23 50 0 37-30 67-66 67-37 0-67-30-67-67 0-21 9-40 25-52-65-20-111-81-111-150 0-21 4-41 13-61-4 1-9 2-13 2-37 0-67-30-67-67z m26 0c0 23 19 41 41 41 23 0 41-18 41-41 0-23-18-41-41-41-22 0-41 18-41 41z m152 328c0 23 19 41 42 41 22 0 41-18 41-41 0-23-19-41-41-41-23 0-42 18-42 41z m-85-202c0 72 59 131 131 131 72 0 131-59 131-131 0-72-59-131-131-131-72 0-131 59-131 131z m247-126c0 23 19 41 41 41 23 0 42-18 42-41 0-23-19-41-42-41-22 0-41 18-41 41z"/>
<glyph unicode="&#57352;" d="M118 71c1 1 3 1 4 2-1-1-3-1-4-2z m4-28c-1 0-1 0-2 0 1 0 1 0 2 0z m21 15c0 9-8 16-16 16-2 0-4-1-5-1-1-1-3-1-4-2-4-3-7-8-7-13 0-7 4-12 9-15 1 0 1 0 2 0 1-1 3-1 5-1 8 0 16 7 16 16z m57 429c-27 0-53-5-77-14-1 0-2 0-3-1 0 0-1 0-2-1-4-2-7-7-7-13 0-6 3-11 7-14 1 0 2 0 3-1 70-33 119-103 119-185 0-82-49-153-118-185 1 0 3 1 5 1 8 0 16-7 16-16 0-9-8-16-16-16-2 0-4 0-5 1 24-9 50-14 78-14 126 0 229 103 229 229 0 126-103 229-229 229z m0-434c-18 0-35 3-51 7 69 39 115 113 115 198 0 84-46 158-115 198 16 4 33 6 51 6 113 0 204-91 204-204 0-113-91-205-204-205z m-80 391c1-1 1-1 1-1-1 1-2 1-3 1 1 0 2 0 2 0z m2 29c-1 0-1 0-2-1 1 1 2 1 3 1-1 0-1 0-1 0z"/>
<glyph unicode="&#57353;" d="M77 249l174-240c2-3 6-5 10-5l0 0c4 0 8 2 10 5l177 240c3 4 3 10 0 14l-177 240c-3 4-6 5-10 5-4 0-8-2-10-5l-174-240c-3-4-3-10 0-14z m184-212l-158 219 158 219 161-219z m0-28z"/>
<glyph unicode="&#57354;" d="M19 221l74 0c7 0 12 5 12 12l0 1 0 0c0 1 0 3-1 4-3 8-4 16-4 24 0 34 27 62 61 62 34 0 62-28 62-62 0-8-2-17-5-24l-1-1 0-1c0 0 0-1 0-1 0 0 0 0 0-1l0-1c0-1 0-1 0-2 0-1 0-2 1-3 0-1 0-1 1-2 0 0 0-1 1-2 1 0 2-1 2-1 0 0 1 0 1-1l1-1 1 0c1 0 1 0 2 0l2 0 73 0c7 0 12 5 12 12 0 6-5 12-12 12l-57 0c1 5 2 11 2 17 0 47-39 86-86 86-47 0-85-39-85-86 0-6 0-11 1-17l-58 0c-7 0-12-6-12-12 0-7 5-12 12-12z m293-70c-2-2-3-5-3-8 0-3 1-6 3-8 0 0 21-19 49-19 29 0 52 18 52 41 0 29-27 35-46 40-22 5-28 8-28 16 0 7 10 14 22 14 15 0 23-8 24-9 4-5 11-6 16-2l1 1c2 2 3 5 3 8 0 3-1 6-3 8-2 3-16 16-41 16-24 0-44-16-44-36 0-28 26-34 45-38 23-6 28-9 28-18 0-10-13-18-29-18-18 0-33 12-33 12 0 0 0 0 0 0-4 5-12 4-16 0z m150 98l-33 0c-7 0-12-5-12-12l0-109c0-6 5-11 12-11 6 0 11 5 11 11l0 39 22 0c22 0 40 19 40 41 0 22-18 41-40 41z m0-59l-22 0 0 36 22 0c10 0 18-8 18-18 0-10-8-18-18-18z"/>
<glyph unicode="&#57355;" d="M22 246l43 0-30-30c-5-5-5-12 0-16 4-4 11-4 15 0l31 31 0-44c0-6 5-11 11-11 6 0 11 5 11 11l0 44 31-31c4-4 11-4 15 0 5 4 5 11 0 16l-30 30 55 0 0-31c0-6 5-11 11-11 6 0 11 5 11 11l0 31 29 0c6-105 91-186 197-186 22 0 44 3 64 10l0-27c0-6 5-11 11-11 6 0 11 5 11 11l0 83c0 6-5 11-11 11-6 0-11-5-11-11l0-32c-20-8-42-12-64-12-93 0-169 72-175 164l106 0 0-30c0-6 5-11 11-11 6 0 11 5 11 11l0 83c0 6-5 11-11 11-6 0-11-5-11-11l0-30-106 0c6 92 82 164 175 164 22 0 44-4 64-12l0-35c0-6 5-11 11-11 6 0 11 5 11 11l0 83c0 6-5 11-11 11-6 0-11-5-11-11l0-24c-20 7-42 10-64 10-106 0-191-81-197-186l-29 0 0 28c0 6-5 11-11 11-6 0-11-5-11-11l0-28-55 0 30 30c5 4 5 11 0 16-4 4-11 4-15 0l-31-31 0 43c0 7-5 12-11 12-6 0-11-5-11-12l0-43-31 31c-4 4-11 4-15 0-5-5-5-12 0-16l30-30-43 0c-6 0-11-5-11-12 0-6 5-11 11-11z"/>
<glyph unicode="&#57356;" d="M162 186c0 41-38 50-68 56-31 8-51 14-51 35 0 16 19 29 43 29 28 0 43-16 45-17 3-5 10-5 15-2l1 1c2 2 3 5 3 8 0 2-1 5-3 7l0 0c-4 4-24 24-61 24-35 0-64-22-64-50 0-40 37-49 67-56 32-7 52-13 52-35 0-21-24-37-55-37-33 0-59 22-59 22-4 4-11 4-15 0-2-2-3-5-3-7 0-3 1-6 3-8 1-1 32-29 74-29 43 0 76 26 76 59z m95-59c43 0 77 26 77 59 0 41-38 50-68 56-32 8-51 14-51 35 0 16 19 29 43 29 28 0 43-16 44-17 4-5 10-5 16-2l0 1c2 2 4 5 4 8 0 2-1 5-3 7l0 0c-4 4-24 24-61 24-36 0-65-22-65-50 0-40 38-49 68-56 32-7 52-13 52-35 0-21-25-37-56-37-32 0-58 22-58 22-4 4-11 4-15 0-2-2-3-5-3-7 0-3 1-6 3-8 0-1 31-29 73-29z m180 115c-31 8-50 14-50 35 0 16 19 29 42 29 28 0 44-16 45-17 4-5 10-5 15-2l1 1c2 2 3 5 3 8 0 2-1 5-3 7-3 4-24 24-61 24-35 0-64-22-64-50 0-40 38-49 68-56 32-7 51-13 51-35 0-21-24-37-55-37-33 0-58 22-58 22-4 4-11 4-15 0-2-2-3-5-3-7 0-3 1-6 3-8 0-1 31-29 73-29 43 0 77 26 77 59 0 41-38 49-69 56z"/>
<glyph unicode="&#57357;" d="M420 432c3 13 7 23 12 28 4 4 12 6 22 6 6 0 12 5 13 11l1 1c0 3-1 7-3 9-2 3-6 5-10 5-17 0-30-5-40-14-10-10-17-24-20-44l-17-97-93 0 10 59 7 36c2 13 6 23 11 28 4 4 12 6 22 6 6 0 12 5 14 11l0 1c0 3-1 7-3 9-2 3-6 5-9 5-18 0-31-5-41-14-10-10-16-24-20-44l-17-97-93 0 10 59 7 36c2 13 6 23 11 28 5 4 12 6 22 6 6 0 12 5 14 11l0 1c0 3-1 7-3 9-2 3-6 5-9 5-18 0-31-5-41-14-10-10-16-24-20-44l-17-97-79 0c-8 0-14-6-14-13 0-8 6-14 14-14l74 0-1-9-73 0c-8 0-14-6-14-14 0-7 6-13 14-13l68 0-2-10-66 0c-8 0-14-6-14-13 0-7 6-14 14-14l61 0-20-114-6-36c-3-13-7-23-12-28-4-4-11-6-22-6-6 0-11-5-13-11l0-1c-1-4 0-7 2-10 3-2 6-4 10-4 17 0 30 5 40 14 10 9 17 23 20 43l27 153 93 0-20-114-6-36c-3-13-7-23-12-28-4-4-12-6-22-6-6 0-11-5-13-11l0-1c-1-4 0-7 2-10 3-2 6-4 10-4 17 0 30 5 40 14 10 10 17 23 20 43l27 153 93 0-20-114-6-36c-3-13-7-23-12-28-4-4-12-6-22-6-6 0-12-5-13-11l-1-1c0-4 1-7 3-10 2-2 6-4 10-4 17 0 30 5 40 14 10 10 17 23 20 43l27 153 67 0c7 0 13 7 13 14 0 7-6 14-13 14l-62 0 1 9 61 0c7 0 13 6 13 13 0 8-6 14-13 14l-56 0 2 9 54 0c7 0 13 6 13 14 0 7-6 13-13 13l-49 0 10 59z m-259-122l93 0-1-9-94 0z m-6-36l93 0-2-10-93 0z m210-10l-93 0 2 10 93 0z m6 37l-93 0 2 9 93 0z"/>
<glyph unicode="&#57358;" d="M322 409c-5 5-14 5-19 0-1 0-1-1-2-1l-191-134-29-20c-11-8-20-12-27-12l-1 0c-6 0-12 4-20 11-4 4-11 5-17 2l0-1c-3-2-5-5-5-8-1-4 1-7 3-10 13-12 25-18 38-19l1 0c14 0 28 5 44 17l213 149 167-168c3-3 6-4 10-4 3 0 7 1 9 4 5 5 5 14 0 19z"/>
<glyph unicode="&#57359;" d="M405 342c0 81-66 148-148 148-81 0-147-67-147-148 0-77 59-140 135-147l0-52-41 42c-5 4-12 4-16 0-5-4-5-12 0-16l41-42-58 0c-7 0-12-5-12-11 0-6 5-11 12-11l58 0-41-41c-5-5-5-12 0-16 4-4 11-4 16 0l41 41 0-58c0-7 5-12 11-12 6 0 11 5 11 12l0 58 42-41c4-4 12-4 16 0 4 4 4 11 0 16l-42 41 59 0c6 0 11 5 11 11 0 6-5 11-11 11l-59 0 42 42c4 4 4 12 0 16-4 4-12 4-16 0l-42-42 0 52c78 6 138 69 138 147z m-148 125c69 0 125-56 125-125 0-69-56-125-125-125-69 0-125 56-125 125 0 69 56 125 125 125z"/>
<glyph unicode="&#57360;" d="M256 4c75 0 136 61 136 136 0 70-54 128-123 135l0 37 50 0c6 0 11 5 11 10 0 6-5 11-11 11l-51 0 0 49 40-39c4-4 11-4 15 0 2 2 3 5 3 7 0 3-1 6-3 8l-39 39 55 0c6 0 11 5 11 11 0 6-5 11-11 11l-55 0 39 39c2 2 3 5 3 7 0 3-1 6-3 8-4 4-11 4-15 0l-40-39 0 55c0 6-4 11-10 11-6 0-11-5-11-11l0-55-39 39c-4 4-11 4-15 0-2-2-3-5-3-8 0-2 1-5 3-7l39-39-56 0c-5 0-10-5-10-11 0-6 5-11 10-11l56 0-39-39c-2-2-3-5-3-8 0-2 1-5 3-7 4-4 11-4 15 0l39 39 0-49-49 0c-6 0-11-5-11-11 0-5 5-10 11-10l50 0 0-37c-72-4-128-63-128-135 0-75 61-136 136-136z m-113 147c5 58 54 103 113 103 59 0 108-45 113-103z m0-22l226 0c-5-58-54-103-113-103-59 0-108 45-113 103z"/>
<glyph unicode="&#57361;" d="M258 506c-6 0-10-4-10-10l0-43-30 31c-4 3-11 3-15 0-2-2-3-5-3-8 0-2 1-5 3-7l30-30-42 0c-6 0-11-5-11-10 0-6 5-10 11-10l42 0-30-31c-2-1-3-4-3-7 0-2 1-5 3-7 4-4 11-4 15 0l30 30 0-37c-57-5-102-53-104-110 0 0 0-1 0-1l0-1c0 0 0 0 0-1 0-29 12-57 32-79 20-20 46-32 74-34l0-44-40 0c-6 0-10-5-10-11 0-5 4-10 10-10l40 0 0-58c0-5 4-10 10-10 6 0 10 5 10 10l0 58 40 0c6 0 10 5 10 10 0 6-4 11-10 11l-40 0 0 44c57 7 102 56 102 113 0 1 0 1 0 1l0 1c0 0 0 1-1 1-1 57-46 105-103 110l0 37 30-30c4-4 11-4 15 0 2 2 3 5 3 7 0 3-1 6-3 7l-30 31 42 0c6 0 10 4 10 10 0 5-4 10-10 10l-42 0 30 30c2 2 3 5 3 7 0 3-1 6-3 8-4 4-11 4-15 0l-30-31 0 43c0 6-4 10-10 10z m0-345c-48 0-88 37-93 85l186 0c-5-48-45-85-93-85z m-92 105c5 46 45 82 92 82 47 0 87-36 92-82z"/>
<glyph unicode="&#57362;" d="M495 256l-124 0c2 10 3 20 3 30 0 64-52 117-116 117-65 0-117-53-117-117 0-10 1-20 4-30l-125 0c-7 0-12-5-12-12 0-6 5-12 12-12l141 0c7 0 12 6 12 12 0 0 0 1 0 1 0 2 0 3-1 5-5 11-7 23-7 36 0 51 42 93 93 93 51 0 93-42 93-93 0-13-3-25-8-36-1-2-1-4-1-6 0-6 5-11 11-12l1 0 141 0c7 0 12 6 12 12 0 7-5 12-12 12z m0-64l-475 0c-7 0-12-5-12-11 0-7 5-12 12-12l475 0c7 0 12 5 12 12 0 6-5 11-12 11z"/>
<glyph unicode="&#57363;" d="M419 177l0 0 1 0c7 0 13 5 13 12 0 3-1 6-3 8l-161 290c-3 4-7 6-12 6-5 0-9-2-11-6l-162-291c-3-4-2-9 0-13 2-4 6-6 11-6l149 0 0-56-41 0c-7 0-13-6-13-13 0-7 6-13 13-13l41 0 0-69c0-7 6-13 13-13 7 0 13 6 13 13l0 69 41 0c8 0 13 6 13 13 0 7-5 13-13 13l-41 0 0 56z m-22 25l-280 0 140 252z"/>
<glyph unicode="&#57364;" d="M403 181c7 0 12 6 12 13l0 293c0 7-5 12-12 12l-294 0c-7 0-12-5-12-12l0-293c0-7 5-13 12-13l135 0 0-59-48 0c-7 0-12-5-12-12 0-7 5-13 12-13l48 0 0-69c0-7 5-12 12-12 7 0 12 5 12 12l0 69 48 0c7 0 12 6 12 13 0 7-5 12-12 12l-48 0 0 59z m-13 294l0-269-268 0 0 269z"/>
<glyph unicode="&#57365;" d="M11 153c0-7 5-12 12-12l229 0c0 0 1 0 2 0l1 0c0 0 0 0 0 0 1 0 2 0 3 0l224 0c6 0 11 5 11 12 0 6-5 11-11 11l-208 0 119 186 49 0c7 0 12 5 12 12 0 6-5 11-12 11l-109 0c-7 0-12-5-12-11 0-7 5-12 12-12l32 0-99-155 0 188 43 0c6 0 11 5 11 12 0 6-5 12-11 12l-110 0c-6 0-12-6-12-12 0-7 6-12 12-12l43 0 0-188-100 155 33 0c6 0 12 6 12 12 0 6-6 12-12 12l-110 0c-6 0-11-6-11-12 0-6 5-12 11-12l49 0 120-186-211 0c-7 0-12-5-12-11z m244-9l0 0z"/>
<glyph unicode="&#57366;" d="M479 169l0 0-50 0 0 300c0 6-5 12-12 12-7 0-12-6-12-12l0-300-107 0 8 5c46 31 74 83 74 138 0 93-76 168-168 168-93 0-169-75-169-168 0-8 1-16 2-25 1-6 8-11 14-10 3 1 6 2 8 5 2 2 3 6 2 9-1 7-1 14-1 21 0 80 64 144 144 144 79 0 143-64 143-144 0-79-64-143-143-143l-156 0c-7 0-13-6-13-13 0-6 6-12 13-12l349 0 0-116c0-6 5-12 12-12 7 0 12 6 12 12l0 116 51 0c7 1 12 6 12 13 0 6-6 12-13 12z"/>
<glyph unicode="&#57367;" d="M162 159l-128 0c-7 0-13-5-13-12 0-6 6-12 13-12l284 0 0-93c0-7 5-12 12-12 7 0 12 5 12 12l0 93 34 0c6-29 31-50 61-50 34 0 61 28 61 62 0 34-27 62-61 62-30 0-55-21-61-50l-34 0 0 311c0 7-5 12-12 12-7 0-12-5-12-12l0-311-78 0c39 26 62 69 62 116 0 78-63 141-140 141-78 0-141-63-141-141 0-7 1-14 2-21 1-6 7-11 14-10 6 1 11 7 10 14-1 6-1 11-1 17 0 64 52 116 116 116 63 0 115-52 115-116 0-64-52-115-115-116z m237-12c0 21 17 38 38 38 20 0 37-17 37-38 0-20-17-37-37-37-21 0-38 17-38 37z"/>
<glyph unicode="&#57368;" d="M482 351c6 0 12 6 12 13l0 102c0 7-6 12-12 12-7 0-13-5-13-12l0-39-426 0 0 39c0 7-6 12-13 12-6 0-12-5-12-12l0-102c0-7 6-13 12-13 7 0 13 6 13 13l0 38 113 0 0-362c0-8 6-14 13-14 7 0 13 6 13 14l0 158 62 0c55 0 78-13 94-27 17-15 25-33 25-55 0-32 4-53 12-65 6-13 17-18 25-18 5 0 10 1 12 4 2 2 4 6 3 11-1 6-7 11-14 11 0 0-1 0-1 0l0 0c-1 0-2 0-3 3-2 4-8 18-8 54 0 50-33 77-53 88-2 1-5 3-7 4 41 18 67 58 67 104 0 35-16 69-45 90l118 0 0-38c0-7 6-13 13-13z m-112-39c0-49-38-87-86-87l-102 0 0 174 101 0c48 0 87-39 87-87z"/>
<glyph unicode="&#57369;" d="M449 384c6 0 11 5 11 12l0 89c0 6-5 12-11 12-7 0-12-6-12-12l0-26c-22 8-46 11-69 11-115 0-208-88-214-202l-128 0c-6 0-11-5-11-12 0-6 5-11 11-11l128 0c6-114 99-203 214-203 23 0 47 4 69 12l0-30c0-6 5-11 12-11 6 0 11 5 11 11l0 90c0 6-5 12-11 12-7 0-12-6-12-12l0-36c-22-8-45-13-69-13-102 0-185 79-191 180l115 0 0-33c0-7 6-12 12-12 6 0 12 5 12 12l0 89c0 6-6 12-12 12-6 0-12-6-12-12l0-33-115 0c6 101 89 179 191 179 24 0 47-4 69-13l0-38c0-7 5-12 12-12z"/>
<glyph unicode="&#57370;" d="M40 486c-7 0-13-6-13-13l0-432c0-7 6-13 13-13l432 0c7 0 13 6 13 13l0 432c0 7-6 13-13 13z m13-431l0 405 406 0 0-405z m208 256c-3 0-7 0-11-1-14-3-26-11-34-23-8-12-11-27-7-41 5-25 27-43 52-43 4 0 8 1 12 1 14 3 26 12 34 24 8 12 10 26 7 41-5 24-27 42-53 42z"/>
<glyph unicode="&#57371;" d="M37 259c0-122 99-221 220-221 122 0 221 99 221 221 0 122-99 221-221 221-121 0-220-99-220-221z m208 196l0-184-184 0c6 99 86 178 184 184z m-184-208l184 0 0-184c-98 6-178 85-184 184z m208 24l0 184c99-6 179-85 185-184z m0-208l0 184 185 0c-6-99-86-178-185-184z"/>
<glyph unicode="&#57372;" d="M37 192c8 0 14 6 14 13l0 39 193 0 0-198-39 0c-8 0-13-5-13-13 0-7 5-13 13-13l105 0c7 0 13 6 13 13 0 8-6 13-13 13l-39 0 0 198 193 0 0-39c0-7 6-13 13-13 7 0 13 6 13 13l0 105c0 7-6 13-13 13-7 0-13-6-13-13l0-39-193 0 0 189 39 0c7 0 13 6 13 13 0 7-6 13-13 13l-105 0c-8 0-13-6-13-13 0-7 5-13 13-13l39 0 0-189-193 0 0 39c0 7-6 13-14 13-7 0-13-6-13-13l0-105c0-7 6-13 13-13z"/>
<glyph unicode="&#57373;" d="M36 191c7 0 13 6 13 14l0 39 195 0 0-199-40 0c-7 0-13-6-13-13 0-8 6-14 13-14l106 0c7 0 13 6 13 14 0 7-6 13-13 13l-39 0 0 199 194 0 0-39c0-8 6-14 14-14 7 0 13 6 13 14l0 105c0 8-6 14-13 14-8 0-14-6-14-14l0-39-194 0 0 190 39 0c7 0 13 6 13 14 0 7-6 13-13 13l-106 0c-7 0-13-6-13-13 0-8 6-14 13-14l40 0 0-190-195 0 0 39c0 8-6 14-13 14-8 0-14-6-14-14l0-105c0-8 6-14 14-14z m254 119c0-10 9-19 20-19 11 0 19 9 19 19 0 11-8 20-19 20-11 0-20-9-20-20z m-86-19c11 0 20 9 20 19 0 11-9 20-20 20-10 0-19-9-19-20 0-10 9-19 19-19z m106-67c-11 0-20-9-20-19 0-11 9-20 20-20 11 0 19 9 19 20 0 10-8 19-19 19z m-86-19c0 10-9 19-20 19-10 0-19-9-19-19 0-11 9-20 19-20 11 0 20 9 20 20z"/>
<glyph unicode="&#57374;" d="M312 491l-107 0c-7 0-14-6-14-13 0-8 7-14 14-14l40 0 0-422-40 0c-7 0-14-6-14-14 0-7 7-13 14-13l107 0c8 0 14 6 14 13 0 8-6 14-14 14l-40 0 0 422 40 0c8 0 14 6 14 14 0 7-6 13-14 13z m0-160c-11 0-20-9-20-20 0-11 9-20 20-20 11 0 20 9 20 20 0 11-9 20-20 20z m-127-20c0-11 9-20 20-20 11 0 20 9 20 20 0 11-9 20-20 20-11 0-20-9-20-20z m127-87c-11 0-20-9-20-20 0-11 9-20 20-20 11 0 20 9 20 20 0 11-9 20-20 20z m-107-40c11 0 20 9 20 20 0 11-9 20-20 20-11 0-20-9-20-20 0-11 9-20 20-20z"/>
<glyph unicode="&#57375;" d="M256 10c85 0 154 69 154 154 0 78-61 145-139 152l0 71 57 0c6 0 11 6 11 12 0 6-5 12-11 12l-57 0 0 76c0 7-6 12-12 12-7 0-12-5-12-12l0-76-57 0c-6 0-11-6-11-12 0-6 5-12 11-12l57 0 0-70c-81-5-145-71-145-153 0-85 69-154 154-154z m-129 142l101 0-72-72c-17 21-27 45-29 72z m117-17l0-101c-26 2-51 13-71 30z m-16 40l-101 0c2 27 12 51 29 72z m16 118l0-101-71 71c20 17 45 28 71 30z m112-46c17-21 27-45 29-72l-101 0z m-88-55l0 101c26-2 51-13 71-30z m71-128c-20-17-45-28-71-30l0 101z m46 88c-2-27-12-51-29-72l-72 72z"/>
<glyph unicode="&#57376;" d="M444 67c-9 0-18 2-25 6 6 6 11 13 15 20 37 63 15 158 3 189-1 3-3 6-7 7-3 1-7 1-10 0-7-4-17-12-27-23 0 20 0 46 0 79l0 31c1 59-41 91-82 91-32 0-50-13-64-33 0 0-2-3-5-8-14 27-39 41-70 41-33 0-50-13-63-34l0 35c0 7-6 13-13 13-8 0-14-6-14-13l0-382c0-7 6-13 14-13 7 0 13 6 13 13l0 203c0 3 0 19 0 26 0 67 18 122 63 123 30 0 54-27 54-60 0-54 0-105 1-151l0-141c0-7 6-13 13-13 7 0 13 6 13 13l0 153c0 24 0 57 0 106l0 3c0 0 0 0 0 0 0 55 22 89 59 90 30 0 54-27 54-60 0-54 0-105 1-151l0-17c-1-1-1-2-1-3 0-1 0-3 1-4l0-78c0 0 0 0 0 0 0-18 5-35 13-50-10-5-20-8-33-10-7-1-12-7-11-14 1-7 7-11 13-11 1 0 1 0 2 0 17 2 32 8 46 15 12-10 28-16 47-16 7 1 14 5 14 13 0 7-5 14-14 15z m-25 189c10-36 20-104-7-150-3-5-7-10-11-14-4 9-7 21-8 35l0 86c4 16 16 33 26 43z"/>
<glyph unicode="&#57377;" d="M256 478c-123 0-224-100-224-224 0-123 101-223 224-223 123 0 224 100 224 223 0 124-101 224-224 224z m12-423l0 187 187 0c-6-100-87-181-187-187z m187 211l-187 0 0 187c100-6 181-86 187-187z m-211 187l0-398c-106 7-187 93-187 199 0 107 81 193 187 199z"/>
<glyph unicode="&#57378;" d="M35 254c0-122 100-222 222-222 123 0 222 100 222 222 0 123-99 222-222 222-122 0-222-99-222-222z m210 198l0-186-185 0c6 100 86 180 185 186z m-185-210l185 0 0-185c-99 6-179 86-185 185z m209-185l0 395c105-7 186-92 186-198 0-105-81-191-186-197z"/>
<glyph unicode="&#57379;" d="M248 56c2-4 5-6 9-6 4 0 8 2 10 6l217 390c2 4 2 8 0 11-2 3-5 5-9 5l-435 0c-4 0-8-2-10-5-2-3-2-7 0-11z m-190 385l399 0-200-358z"/>
<glyph unicode="&#57380;" d="M257 20c7 0 12 6 12 12l0 147c33 5 59 31 65 63l145 0c7 0 12 6 12 12 0 7-5 12-12 12l-145 0c-4 35-30 62-65 67l0 145c0 7-5 12-12 12-6 0-12-5-12-12l0-145c-34-5-61-33-65-67l-145 0c-7 0-12-5-12-12 0-6 5-12 12-12l145 0c6-32 32-58 65-63l0-147c0-6 5-12 12-12z m-54 236c0 30 24 55 54 55 30 0 54-25 54-55 0-30-24-54-54-54-30 0-54 24-54 54z"/>
</font>
</defs>
</svg>
